M48
; DRILL file {KiCad 8.0.3} date 2024-06-18T17:58:40+0200
; FORMAT={-:-/ absolute / metric / decimal}
; #@! TF.CreationDate,2024-06-18T17:58:40+02:00
; #@! TF.GenerationSoftware,Kicad,Pcbnew,8.0.3
; #@! TF.FileFunction,Plated,1,2,PTH
FMAT,2
METRIC
; #@! TA.AperFunction,Plated,PTH,ViaDrill
T1C0.300
; #@! TA.AperFunction,Plated,PTH,ViaDrill
T2C0.400
; #@! TA.AperFunction,Plated,PTH,ComponentDrill
T3C0.600
; #@! TA.AperFunction,Plated,PTH,ComponentDrill
T4C0.750
; #@! TA.AperFunction,Plated,PTH,ComponentDrill
T5C0.762
; #@! TA.AperFunction,Plated,PTH,ComponentDrill
T6C1.100
; #@! TA.AperFunction,Plated,PTH,ComponentDrill
T7C1.320
; #@! TA.AperFunction,Plated,PTH,ComponentDrill
T8C1.450
; #@! TA.AperFunction,Plated,PTH,ComponentDrill
T9C2.390
; #@! TA.AperFunction,Plated,PTH,ComponentDrill
T10C3.550
%
G90
G05
T1
X100.22Y-114.72
X100.43Y-53.82
X100.43Y-56.36
X100.43Y-58.9
X100.43Y-61.44
X100.43Y-63.98
X100.43Y-66.52
X100.43Y-69.06
X100.43Y-71.6
X100.43Y-74.14
X100.43Y-76.68
X100.43Y-79.24
X100.43Y-81.74
X100.92Y-117.35
X100.92Y-119.85
X100.92Y-122.35
X100.92Y-124.85
X100.92Y-127.35
X100.92Y-129.695
X100.92Y-132.23
X100.92Y-134.73
X100.92Y-137.23
X100.92Y-139.73
X101.39Y-51.23
X102.72Y-114.72
X102.75Y-81.81
X103.52Y-141.51
X104.27Y-47.31
X104.27Y-49.81
X104.73Y-143.39
X105.22Y-114.72
X105.29Y-81.81
X105.98Y-144.54
X107.83Y-81.81
X109.739Y-54.173
X109.923Y-56.067
X110.37Y-81.81
X110.37Y-107.21
X110.68Y-47.2
X110.89Y-69.22
X110.98Y-144.54
X111.24Y-47.89
X112.91Y-81.81
X112.91Y-107.21
X113.48Y-144.54
X113.53Y-57.17
X113.65Y-139.31
X115.06Y-82.5
X115.45Y-107.21
X115.68Y-47.2
X115.98Y-144.54
X116.66Y-84.58
X117.99Y-86.89
X117.99Y-107.21
X118.18Y-47.2
X118.48Y-144.54
X119.02Y-88.67
X119.93Y-86.92
X120.53Y-107.21
X120.97Y-144.52
X121.56Y-88.67
X122.08Y-74.05
X122.28Y-72.135
X123.07Y-107.21
X123.38Y-81.44
X123.48Y-144.54
X124.1Y-88.67
X124.98Y-74.065
X125.61Y-107.21
X125.98Y-144.54
X126.04Y-75.34
X126.57Y-70.58
X126.64Y-88.67
X128.14Y-47.21
X128.15Y-107.21
X128.48Y-144.54
X128.8Y-138.78
X129.18Y-88.67
X129.205Y-70.62
X130.68Y-47.2
X130.69Y-107.21
X130.815Y-80.545
X130.959Y-75.78
X130.98Y-144.54
X131.149Y-81.871
X131.72Y-88.67
X132.91Y-136.31
X133.18Y-47.2
X133.23Y-107.21
X133.48Y-144.54
X134.205Y-63.78
X134.26Y-88.67
X134.58Y-86.92
X134.68Y-135.9
X135.76Y-77.99
X135.77Y-89.43
X135.77Y-91.97
X135.77Y-94.51
X135.77Y-97.05
X135.77Y-99.59
X135.77Y-102.13
X135.77Y-104.67
X135.77Y-107.21
X135.98Y-144.54
X137.055Y-74.895
X137.32Y-47.16
X137.77Y-77.53
X137.95Y-88.13
X138.405Y-76.08
X138.48Y-144.54
X139.07Y-86.93
X139.195Y-88.455
X139.99Y-83.08
X140.68Y-47.2
X140.86Y-93.87
X140.98Y-144.54
X141.24Y-79.88
X141.68Y-117.69
X141.68Y-137.28
X141.74Y-139.99
X141.85Y-58.25
X142.01Y-92.16
X142.07Y-119.57
X142.87Y-68.82
X143.14Y-59.07
X143.18Y-47.2
X143.29Y-56.91
X143.33Y-60.2
X143.361Y-113.92
X143.48Y-144.54
X143.94Y-61.43
X144.12Y-62.83
X144.19Y-64.54
X144.57Y-121.82
X145.059Y-120.4
X145.161Y-113.57
X145.38Y-109.66
X145.98Y-144.54
X146.09Y-83.13
X146.566Y-82.366
X146.635Y-79.045
X147.4Y-106.92
X147.49Y-83.161
X147.5Y-56.36
X147.64Y-79.34
X147.72Y-116.72
X148.2Y-139.6
X148.25Y-96.35
X148.48Y-144.54
X149.02Y-125.68
X149.106Y-97.01
X149.13Y-134.92
X149.19Y-93.75
X149.53Y-112.87
X150.165Y-99.745
X150.4Y-115.81
X150.449Y-120.39
X150.692Y-109.73
X150.84Y-113.95
X150.98Y-140.49
X150.98Y-141.41
X150.98Y-144.54
X151.225Y-101.21
X151.42Y-124.4
X151.7Y-58.36
X151.7Y-59.87
X152.04Y-120.62
X152.45Y-57.6
X152.47Y-59.11
X152.48Y-60.6
X152.54Y-113.84
X152.73Y-116.35
X153.2Y-59.87
X153.21Y-58.37
X153.32Y-144.54
X153.95Y-59.1
X153.96Y-57.6
X153.97Y-60.62
X154.04Y-135.33
X154.27Y-105.49
X154.72Y-58.38
X154.72Y-59.85
X155.05Y-128.8
X155.205Y-77.025
X155.57Y-117.68
X155.57Y-121.81
X155.61Y-115.89
X155.82Y-144.54
X155.95Y-128.8
X156.4Y-73.55
X156.66Y-123.61
X157.49Y-82.0
X158.29Y-116.615
X158.32Y-144.54
X158.62Y-54.93
X158.69Y-121.32
X159.047Y-55.665
X160.06Y-97.81
X160.12Y-68.92
X160.35Y-126.58
X160.7Y-129.06
X160.7Y-132.13
X160.82Y-144.54
X161.23Y-138.62
X161.65Y-66.0
X162.15Y-135.37
X163.24Y-73.44
X163.32Y-144.54
X163.64Y-129.08
X163.78Y-134.99
X164.43Y-137.99
X164.845Y-53.02
X165.53Y-47.11
X165.63Y-138.06
X165.7Y-144.51
X165.83Y-52.99
X167.04Y-127.3
X167.07Y-48.11
X167.51Y-86.89
X167.7Y-129.4
X167.71Y-126.45
X167.94Y-133.89
X168.05Y-144.49
X168.07Y-56.46
X168.21Y-47.11
X168.65Y-109.44
X168.65Y-110.71
X168.68Y-67.85
X168.69Y-95.23
X168.7Y-66.55
X168.72Y-96.52
X168.79Y-82.2
X168.8Y-80.95
X169.79Y-129.5
X170.42Y-49.23
X170.71Y-47.11
X170.87Y-135.42
X171.05Y-64.0
X171.08Y-92.67
X171.09Y-78.37
X171.09Y-130.54
X171.13Y-106.92
X171.19Y-85.1
X171.29Y-50.14
X171.36Y-113.61
X171.44Y-99.39
X171.532Y-70.708
X172.38Y-119.62
X172.42Y-72.55
X172.7Y-117.99
X172.85Y-86.69
X172.85Y-100.78
X172.87Y-114.99
X172.99Y-49.77
X173.21Y-47.11
X173.26Y-130.16
X173.81Y-123.77
X174.31Y-125.52
X175.4Y-107.16
X175.67Y-92.47
X175.71Y-47.11
X175.76Y-56.08
X175.76Y-64.27
X175.88Y-78.67
X175.98Y-144.54
X176.53Y-117.96
X176.64Y-113.23
X176.68Y-99.06
X176.73Y-70.6
X176.81Y-85.0
X177.11Y-100.79
X177.12Y-114.97
X177.37Y-72.47
X177.4Y-123.36
X177.43Y-86.7
X177.6Y-128.53
X177.89Y-49.86
X178.21Y-47.11
X178.48Y-90.96
X178.48Y-144.54
X178.6Y-76.98
X179.32Y-110.08
X179.53Y-95.83
X179.78Y-100.89
X179.81Y-128.42
X179.89Y-86.74
X180.01Y-72.36
X180.55Y-105.36
X180.71Y-47.11
X180.76Y-62.71
X180.81Y-116.23
X180.95Y-66.06
X180.97Y-80.6
X180.98Y-144.54
X181.2Y-122.48
X181.98Y-132.96
X182.001Y-130.659
X182.07Y-131.57
X182.31Y-129.335
X182.37Y-123.73
X182.47Y-127.37
X182.58Y-119.04
X182.73Y-125.82
X183.21Y-47.11
X183.48Y-144.54
X184.64Y-138.05
X185.71Y-47.11
X185.98Y-144.54
X186.71Y-49.61
X186.71Y-142.11
X187.55Y-99.64
X188.116Y-51.068
X189.28Y-127.0
X189.71Y-140.3
X190.148Y-51.576
X190.58Y-127.94
X190.58Y-130.44
X190.58Y-132.94
X190.58Y-135.94
X190.58Y-138.44
X190.68Y-52.93
X190.68Y-55.47
X190.68Y-58.01
X190.68Y-60.55
X190.68Y-63.09
X190.68Y-65.63
X190.68Y-68.17
X190.68Y-70.71
X190.68Y-73.25
X190.68Y-75.79
X190.68Y-78.33
X190.68Y-80.87
X190.68Y-83.41
X190.68Y-85.95
X190.68Y-88.49
X190.68Y-91.03
X190.68Y-93.57
X190.68Y-96.11
X190.68Y-98.65
X190.68Y-101.19
X190.68Y-103.73
X190.68Y-106.27
X190.68Y-108.81
X190.68Y-111.35
X190.68Y-113.89
X190.68Y-116.43
X190.68Y-118.97
X190.68Y-121.51
X190.68Y-124.04
T2
X126.375Y-65.08
X127.75Y-64.385
X129.95Y-64.495
X132.315Y-66.114
X141.549Y-63.054
X160.3Y-73.65
T4
X114.33Y-118.72
X116.33Y-118.72
T5
X114.86Y-111.28
X117.4Y-111.28
X119.94Y-111.28
X122.48Y-111.28
X125.02Y-111.28
X127.56Y-111.28
X130.1Y-111.28
X132.64Y-111.28
T6
X102.34Y-58.4
X102.34Y-60.94
X102.34Y-63.48
X102.34Y-66.02
X102.34Y-69.11
X102.34Y-71.65
X102.34Y-74.19
X102.34Y-76.73
X116.56Y-58.41
X116.56Y-60.95
X116.56Y-63.49
X116.56Y-66.03
X116.56Y-69.09
X116.56Y-71.63
X116.56Y-74.17
X116.56Y-76.71
X133.99Y-76.56
X136.53Y-76.56
X139.45Y-49.34
X141.99Y-49.34
X143.73Y-85.08
X143.73Y-87.62
X167.8Y-121.05
X167.8Y-123.59
X180.9Y-55.59
X183.44Y-55.59
X185.98Y-55.59
X188.52Y-55.59
X188.64Y-93.39
X188.64Y-95.93
X188.64Y-98.47
X188.64Y-101.01
X188.68Y-60.75
X188.68Y-63.29
X188.68Y-65.83
X188.68Y-68.37
X188.71Y-82.62
X188.71Y-85.16
X188.71Y-87.7
X188.71Y-90.24
X188.73Y-115.17
X188.73Y-117.71
X188.73Y-120.25
X188.73Y-122.79
T7
X108.5Y-134.87
X180.7Y-134.87
T8
X104.38Y-119.81
X104.38Y-124.81
X187.14Y-73.37
X187.14Y-78.37
X187.18Y-105.98
X187.18Y-110.98
T9
X108.5Y-142.74
T10
X116.86Y-127.0
X172.06Y-142.74
T3
X184.748Y-125.39G85X185.347Y-125.39
G05
X184.748Y-134.03G85X185.347Y-134.03
G05
X188.927Y-125.39G85X189.528Y-125.39
G05
X188.927Y-134.03G85X189.528Y-134.03
G05
M30
