M48
; DRILL file {KiCad 7.0.2} date Wed Apr 26 00:03:44 2023
; FORMAT={-:-/ absolute / metric / decimal}
; #@! TF.CreationDate,2023-04-26T00:03:44+02:00
; #@! TF.GenerationSoftware,Kicad,Pcbnew,7.0.2
; #@! TF.FileFunction,Plated,1,2,PTH
FMAT,2
METRIC
; #@! TA.AperFunction,Plated,PTH,ViaDrill
T1C0.300
; #@! TA.AperFunction,Plated,PTH,ViaDrill
T2C0.400
; #@! TA.AperFunction,Plated,PTH,ComponentDrill
T3C0.600
; #@! TA.AperFunction,Plated,PTH,ComponentDrill
T4C0.750
; #@! TA.AperFunction,Plated,PTH,ComponentDrill
T5C1.000
; #@! TA.AperFunction,Plated,PTH,ComponentDrill
T6C1.100
; #@! TA.AperFunction,Plated,PTH,ComponentDrill
T7C1.320
; #@! TA.AperFunction,Plated,PTH,ComponentDrill
T8C1.450
; #@! TA.AperFunction,Plated,PTH,ComponentDrill
T9C2.390
; #@! TA.AperFunction,Plated,PTH,ComponentDrill
T10C3.026
; #@! TA.AperFunction,Plated,PTH,ComponentDrill
T11C3.550
%
G90
G05
T1
X87.6Y-112.93
X87.6Y-115.43
X87.6Y-117.93
X87.6Y-120.43
X87.6Y-122.93
X87.6Y-125.43
X87.6Y-127.93
X87.6Y-130.43
X87.6Y-132.93
X87.6Y-137.93
X87.61Y-135.43
X88.3Y-140.56
X88.3Y-143.06
X88.3Y-145.56
X88.3Y-148.06
X88.3Y-150.56
X88.3Y-152.905
X88.3Y-155.44
X88.3Y-157.94
X88.3Y-160.44
X88.3Y-162.94
X88.74Y-102.06
X88.75Y-82.67
X88.75Y-91.38
X88.77Y-74.44
X90.1Y-112.93
X90.1Y-115.43
X90.1Y-132.93
X90.1Y-135.43
X90.1Y-137.93
X90.9Y-164.72
X91.65Y-70.52
X91.65Y-73.02
X91.65Y-131.35
X92.11Y-166.6
X92.46Y-87.03
X92.6Y-112.93
X92.6Y-115.43
X92.6Y-117.93
X92.6Y-120.43
X92.6Y-122.93
X92.6Y-125.43
X92.6Y-127.93
X92.6Y-130.43
X92.6Y-132.93
X92.6Y-135.43
X92.6Y-137.93
X93.36Y-167.75
X95.1Y-112.93
X95.1Y-115.43
X95.1Y-117.93
X95.1Y-120.43
X95.1Y-122.93
X95.1Y-125.43
X95.1Y-127.93
X95.1Y-130.43
X95.1Y-132.93
X95.1Y-135.43
X95.1Y-137.93
X97.119Y-77.383
X97.161Y-139.3
X97.303Y-79.277
X97.6Y-112.93
X97.6Y-115.43
X97.6Y-117.93
X97.6Y-120.43
X97.6Y-122.93
X97.6Y-125.43
X97.6Y-127.93
X97.6Y-130.43
X97.6Y-132.93
X97.6Y-135.43
X97.6Y-137.93
X98.06Y-70.41
X98.06Y-102.91
X98.36Y-167.75
X98.62Y-71.1
X100.1Y-112.93
X100.1Y-115.43
X100.1Y-117.93
X100.1Y-120.43
X100.1Y-122.93
X100.1Y-125.43
X100.1Y-127.93
X100.1Y-130.43
X100.1Y-132.93
X100.1Y-135.43
X100.1Y-137.93
X100.86Y-167.75
X100.91Y-80.38
X101.03Y-162.52
X102.6Y-112.93
X102.6Y-115.43
X102.6Y-117.93
X102.6Y-120.43
X102.6Y-122.93
X102.6Y-125.43
X102.6Y-127.93
X102.6Y-130.43
X102.6Y-132.93
X102.6Y-135.43
X102.6Y-137.93
X103.06Y-70.41
X103.36Y-167.75
X105.1Y-112.93
X105.1Y-115.43
X105.1Y-132.93
X105.1Y-135.43
X105.1Y-137.93
X105.56Y-70.41
X105.86Y-167.75
X107.11Y-126.27
X107.31Y-110.13
X107.59Y-130.12
X107.6Y-115.43
X107.6Y-117.93
X107.6Y-135.43
X107.6Y-137.93
X107.65Y-120.07
X107.68Y-133.0
X107.7Y-122.5
X108.06Y-70.41
X108.35Y-167.73
X109.08Y-86.79
X109.46Y-97.26
X109.68Y-122.48
X109.76Y-126.48
X109.78Y-118.46
X110.1Y-130.14
X110.1Y-132.93
X110.1Y-137.93
X110.56Y-70.41
X110.76Y-104.65
X110.86Y-167.75
X111.59Y-126.88
X111.65Y-117.92
X111.68Y-122.48
X112.29Y-132.93
X112.45Y-135.97
X112.48Y-137.95
X112.61Y-130.08
X113.36Y-167.75
X113.54Y-97.01
X113.95Y-93.79
X114.91Y-98.616
X115.86Y-167.75
X116.18Y-161.99
X117.86Y-126.07
X117.895Y-122.48
X118.06Y-70.41
X118.195Y-103.755
X118.339Y-98.99
X118.36Y-167.75
X118.529Y-105.081
X119.74Y-93.83
X120.29Y-159.52
X120.56Y-70.41
X120.86Y-167.75
X121.58Y-84.25
X122.05Y-110.22
X122.05Y-132.66
X122.06Y-159.11
X122.99Y-123.72
X123.0Y-131.78
X123.06Y-70.41
X123.36Y-167.75
X123.83Y-97.5
X123.98Y-91.14
X124.64Y-100.85
X124.74Y-86.99
X125.33Y-111.36
X125.61Y-99.29
X125.86Y-167.75
X126.14Y-110.91
X126.46Y-93.42
X126.94Y-110.21
X128.06Y-70.41
X128.23Y-105.98
X128.24Y-92.3
X128.24Y-117.08
X128.24Y-121.12
X128.36Y-167.75
X129.06Y-160.49
X129.12Y-163.2
X129.74Y-99.29
X129.77Y-100.74
X129.77Y-105.73
X129.91Y-91.834
X130.1Y-111.1
X130.27Y-112.39
X130.56Y-70.41
X130.689Y-138.15
X130.809Y-143.95
X130.86Y-167.75
X131.21Y-87.69
X132.439Y-143.61
X132.489Y-137.8
X132.71Y-123.85
X133.06Y-70.41
X133.36Y-167.75
X134.1Y-97.05
X134.766Y-134.295
X135.1Y-139.93
X135.23Y-108.53
X135.58Y-162.81
X135.86Y-167.75
X136.11Y-111.09
X136.13Y-70.4
X136.4Y-148.89
X136.51Y-158.13
X136.68Y-80.55
X137.109Y-136.76
X137.78Y-139.02
X137.829Y-143.6
X138.02Y-133.96
X138.36Y-167.75
X138.429Y-137.8
X138.54Y-81.7
X138.59Y-113.48
X138.59Y-160.26
X138.59Y-161.55
X138.94Y-90.57
X139.42Y-158.47
X139.449Y-144.01
X139.45Y-70.32
X139.72Y-125.13
X139.85Y-138.34
X140.38Y-145.42
X140.56Y-71.92
X140.57Y-124.36
X140.7Y-167.75
X141.67Y-84.91
X141.67Y-128.68
X142.43Y-152.01
X142.91Y-70.32
X142.945Y-112.665
X142.95Y-140.89
X143.2Y-167.75
X143.33Y-152.01
X143.54Y-105.925
X143.56Y-94.84
X143.71Y-118.91
X143.91Y-73.04
X144.04Y-146.82
X144.28Y-93.18
X144.61Y-115.08
X144.78Y-73.95
X145.41Y-70.32
X145.55Y-107.19
X145.7Y-167.75
X146.21Y-108.53
X146.48Y-73.58
X146.61Y-161.78
X146.65Y-84.31
X146.88Y-102.17
X147.0Y-135.78
X147.73Y-149.79
X147.91Y-70.32
X148.08Y-155.34
X148.2Y-88.0
X148.2Y-167.75
X148.22Y-91.94
X149.53Y-158.58
X149.59Y-161.2
X149.75Y-83.1
X149.842Y-132.19
X150.29Y-161.21
X150.35Y-152.764
X150.41Y-70.32
X150.7Y-167.75
X151.16Y-158.2
X152.636Y-144.636
X152.68Y-74.91
X152.91Y-70.32
X152.97Y-76.85
X153.08Y-167.72
X155.32Y-157.1
X155.43Y-167.7
X155.59Y-70.32
X156.03Y-132.65
X156.03Y-133.92
X156.06Y-91.06
X156.07Y-118.44
X156.08Y-89.76
X156.1Y-119.73
X156.17Y-105.41
X156.18Y-104.16
X156.72Y-80.5
X158.09Y-70.32
X158.25Y-158.63
X158.34Y-151.69
X158.43Y-87.21
X158.46Y-115.88
X158.47Y-101.58
X158.47Y-153.75
X158.47Y-148.37
X158.47Y-149.236
X158.57Y-108.31
X158.74Y-136.82
X158.82Y-122.6
X158.912Y-93.918
X159.8Y-95.76
X160.23Y-109.9
X160.23Y-123.99
X160.25Y-138.2
X160.59Y-70.32
X160.64Y-153.37
X161.66Y-149.74
X161.68Y-148.17
X162.78Y-130.37
X163.05Y-115.68
X163.09Y-70.32
X163.14Y-87.48
X163.26Y-101.88
X163.36Y-167.75
X163.647Y-150.922
X163.91Y-136.43
X164.06Y-122.27
X164.11Y-93.81
X164.19Y-108.21
X164.35Y-154.45
X164.49Y-124.0
X164.5Y-138.18
X164.75Y-95.68
X164.81Y-109.91
X164.98Y-144.45
X165.59Y-70.32
X165.86Y-114.17
X165.86Y-167.75
X165.98Y-100.19
X166.7Y-133.29
X166.91Y-119.04
X167.16Y-124.1
X167.27Y-109.95
X167.39Y-95.57
X167.83Y-152.046
X167.93Y-128.57
X168.09Y-70.32
X168.14Y-85.92
X168.19Y-139.44
X168.33Y-89.27
X168.35Y-103.81
X168.36Y-167.75
X168.5Y-149.88
X169.12Y-147.14
X169.36Y-156.17
X169.45Y-154.78
X169.52Y-153.344
X169.53Y-77.25
X169.83Y-152.046
X169.85Y-150.58
X170.59Y-70.32
X170.86Y-167.75
X172.02Y-161.26
X173.09Y-70.32
X173.36Y-167.75
X174.09Y-72.82
X174.09Y-165.32
X174.93Y-122.85
X175.496Y-74.278
X176.66Y-150.21
X177.09Y-163.51
X177.528Y-74.786
X177.528Y-77.072
X177.528Y-79.358
X177.528Y-81.644
X177.96Y-151.15
X177.96Y-153.65
X177.96Y-156.15
X177.96Y-159.15
X177.96Y-161.65
X178.06Y-147.25
T2
X116.91Y-88.29
X118.285Y-87.595
X120.485Y-87.705
X122.85Y-89.28
X135.01Y-105.97
X135.85Y-102.96
X136.85Y-101.68
X137.72Y-103.33
X140.08Y-105.27
T4
X88.71Y-93.72
X88.71Y-95.72
X88.71Y-97.72
X88.71Y-99.72
X88.74Y-85.04
X88.74Y-87.04
X88.74Y-89.04
X88.75Y-76.34
X88.75Y-78.34
X88.75Y-80.34
X88.76Y-104.41
X88.76Y-106.41
X88.76Y-108.41
X88.76Y-110.41
X103.73Y-93.72
X103.73Y-95.72
X103.73Y-97.72
X103.73Y-99.72
X103.73Y-104.4
X103.73Y-106.4
X103.73Y-108.4
X103.73Y-110.4
X103.76Y-85.03
X103.76Y-87.03
X103.76Y-89.03
X103.8Y-76.35
X103.8Y-78.35
X103.8Y-80.35
X143.31Y-122.3
X143.31Y-124.3
X153.15Y-161.27
X153.15Y-163.27
X157.9Y-72.09
X159.9Y-72.09
X161.9Y-72.09
X163.9Y-72.09
X168.51Y-72.08
X170.51Y-72.08
T5
X117.65Y-112.38
T6
X176.02Y-116.6
X176.02Y-119.14
X176.02Y-121.68
X176.02Y-124.22
X176.06Y-83.96
X176.06Y-86.5
X176.06Y-89.04
X176.06Y-91.58
X176.09Y-105.83
X176.09Y-108.37
X176.09Y-110.91
X176.09Y-113.45
X176.11Y-138.38
X176.11Y-140.92
X176.11Y-143.46
X176.11Y-146.0
T7
X95.88Y-158.08
X168.08Y-158.08
T8
X91.76Y-143.02
X91.76Y-148.02
X174.52Y-96.58
X174.52Y-101.58
X174.56Y-129.19
X174.56Y-134.19
T9
X95.88Y-165.95
T10
X117.65Y-117.18
T11
X104.24Y-150.21
X159.44Y-165.95
T3
G00X172.127Y-148.6
M15
G01X172.727Y-148.6
M16
G05
G00X172.127Y-157.24
M15
G01X172.727Y-157.24
M16
G05
G00X176.308Y-148.6
M15
G01X176.907Y-148.6
M16
G05
G00X176.308Y-157.24
M15
G01X176.907Y-157.24
M16
G05
T0
M30
