G04 #@! TF.GenerationSoftware,KiCad,Pcbnew,7.0.2*
G04 #@! TF.CreationDate,2023-04-26T00:03:43+02:00*
G04 #@! TF.ProjectId,ruche,72756368-652e-46b6-9963-61645f706362,rev?*
G04 #@! TF.SameCoordinates,Original*
G04 #@! TF.FileFunction,Profile,NP*
%FSLAX46Y46*%
G04 Gerber Fmt 4.6, Leading zero omitted, Abs format (unit mm)*
G04 Created by KiCad (PCBNEW 7.0.2) date 2023-04-26 00:03:43*
%MOMM*%
%LPD*%
G01*
G04 APERTURE LIST*
G04 #@! TA.AperFunction,Profile*
%ADD10C,0.050000*%
G04 #@! TD*
G04 APERTURE END LIST*
D10*
X88500000Y-169010000D02*
X177300000Y-169010000D01*
X99210000Y-69100000D02*
X94210000Y-69100000D01*
X179299975Y-71110000D02*
G75*
G03*
X177300000Y-69100000I-1999975J10000D01*
G01*
X86500000Y-80390000D02*
X86500000Y-167110000D01*
X95160000Y-74100000D02*
X94210000Y-74100000D01*
X99710000Y-69600000D02*
G75*
G03*
X99210000Y-69100000I-500000J0D01*
G01*
X92210000Y-69100000D02*
X88500000Y-69100000D01*
X99710000Y-73600000D02*
X99710000Y-69600000D01*
X178300000Y-71610000D02*
G75*
G03*
X178300000Y-71610000I-1500000J0D01*
G01*
X92710000Y-69600000D02*
X92710000Y-74600000D01*
X101210000Y-69100000D02*
X125900000Y-69100000D01*
X94210000Y-69100000D02*
G75*
G03*
X93710000Y-69600000I0J-500000D01*
G01*
X92710000Y-74600000D02*
G75*
G03*
X93210000Y-75100000I500000J0D01*
G01*
X97710000Y-74100000D02*
G75*
G03*
X97710000Y-75100000I0J-500000D01*
G01*
X90500000Y-166510000D02*
G75*
G03*
X90500000Y-166510000I-1500000J0D01*
G01*
X100710000Y-69600000D02*
X100710000Y-74600000D01*
X177300000Y-69100000D02*
X125900000Y-69100000D01*
X100210000Y-75100000D02*
X97710000Y-75100000D01*
X97710000Y-74100000D02*
X99210000Y-74100000D01*
X99210000Y-74100000D02*
G75*
G03*
X99710000Y-73600000I0J500000D01*
G01*
X88500000Y-69100025D02*
G75*
G03*
X86500000Y-71110000I10000J-2009975D01*
G01*
X177300000Y-169010000D02*
G75*
G03*
X179300000Y-167110000I97500J1900000D01*
G01*
X100210000Y-75100000D02*
G75*
G03*
X100710000Y-74600000I0J500000D01*
G01*
X86500000Y-167110000D02*
G75*
G03*
X88500000Y-169010000I1902500J0D01*
G01*
X101210000Y-69100000D02*
G75*
G03*
X100710000Y-69600000I0J-500000D01*
G01*
X178300000Y-166510000D02*
G75*
G03*
X178300000Y-166510000I-1500000J0D01*
G01*
X93710000Y-73600000D02*
X93710000Y-69600000D01*
X179300000Y-73610000D02*
X179300000Y-71110000D01*
X93710000Y-73600000D02*
G75*
G03*
X94210000Y-74100000I500000J0D01*
G01*
X93210000Y-75100000D02*
X95160000Y-75100000D01*
X92709999Y-69600000D02*
G75*
G03*
X92210000Y-69100001I-504999J-5000D01*
G01*
X86500000Y-80390000D02*
X86500000Y-71110000D01*
X95160000Y-75100000D02*
G75*
G03*
X95160000Y-74100000I0J500000D01*
G01*
X179300000Y-167110000D02*
X179300000Y-73610000D01*
X90500000Y-71610000D02*
G75*
G03*
X90500000Y-71610000I-1500000J0D01*
G01*
M02*
