G04 #@! TF.GenerationSoftware,KiCad,Pcbnew,7.0.2*
G04 #@! TF.CreationDate,2023-04-26T00:03:43+02:00*
G04 #@! TF.ProjectId,ruche,72756368-652e-46b6-9963-61645f706362,rev?*
G04 #@! TF.SameCoordinates,Original*
G04 #@! TF.FileFunction,Soldermask,Bot*
G04 #@! TF.FilePolarity,Negative*
%FSLAX46Y46*%
G04 Gerber Fmt 4.6, Leading zero omitted, Abs format (unit mm)*
G04 Created by KiCad (PCBNEW 7.0.2) date 2023-04-26 00:03:43*
%MOMM*%
%LPD*%
G01*
G04 APERTURE LIST*
G04 Aperture macros list*
%AMRoundRect*
0 Rectangle with rounded corners*
0 $1 Rounding radius*
0 $2 $3 $4 $5 $6 $7 $8 $9 X,Y pos of 4 corners*
0 Add a 4 corners polygon primitive as box body*
4,1,4,$2,$3,$4,$5,$6,$7,$8,$9,$2,$3,0*
0 Add four circle primitives for the rounded corners*
1,1,$1+$1,$2,$3*
1,1,$1+$1,$4,$5*
1,1,$1+$1,$6,$7*
1,1,$1+$1,$8,$9*
0 Add four rect primitives between the rounded corners*
20,1,$1+$1,$2,$3,$4,$5,0*
20,1,$1+$1,$4,$5,$6,$7,0*
20,1,$1+$1,$6,$7,$8,$9,0*
20,1,$1+$1,$8,$9,$2,$3,0*%
G04 Aperture macros list end*
%ADD10R,2.175000X2.175000*%
%ADD11C,2.175000*%
%ADD12RoundRect,0.250000X-0.350000X-0.625000X0.350000X-0.625000X0.350000X0.625000X-0.350000X0.625000X0*%
%ADD13O,1.200000X1.750000*%
%ADD14RoundRect,0.250000X0.625000X-0.350000X0.625000X0.350000X-0.625000X0.350000X-0.625000X-0.350000X0*%
%ADD15O,1.750000X1.200000*%
%ADD16C,1.500000*%
%ADD17C,4.540000*%
%ADD18R,1.650000X1.650000*%
%ADD19C,1.650000*%
%ADD20RoundRect,0.250000X-0.625000X0.350000X-0.625000X-0.350000X0.625000X-0.350000X0.625000X0.350000X0*%
%ADD21C,0.650000*%
%ADD22RoundRect,0.500000X0.300000X0.000000X0.300000X0.000000X-0.300000X0.000000X-0.300000X0.000000X0*%
%ADD23C,1.980000*%
%ADD24C,5.325000*%
%ADD25C,3.585000*%
G04 APERTURE END LIST*
D10*
X91760000Y-143020000D03*
D11*
X91760000Y-148020000D03*
D12*
X157900000Y-72090000D03*
D13*
X159900000Y-72090000D03*
X161900000Y-72090000D03*
X163900000Y-72090000D03*
D14*
X88740000Y-89040000D03*
D15*
X88740000Y-87040000D03*
X88740000Y-85040000D03*
D14*
X88750000Y-80340000D03*
D15*
X88750000Y-78340000D03*
X88750000Y-76340000D03*
D14*
X103760000Y-89030000D03*
D15*
X103760000Y-87030000D03*
X103760000Y-85030000D03*
D16*
X117650000Y-112380000D03*
D17*
X117650000Y-117180000D03*
D18*
X176060000Y-83960000D03*
D19*
X176060000Y-86500000D03*
X176060000Y-89040000D03*
X176060000Y-91580000D03*
D14*
X103800000Y-80350000D03*
D15*
X103800000Y-78350000D03*
X103800000Y-76350000D03*
D20*
X143310000Y-122300000D03*
D15*
X143310000Y-124300000D03*
D10*
X174520000Y-101580000D03*
D11*
X174520000Y-96580000D03*
D10*
X174560000Y-134190000D03*
D11*
X174560000Y-129190000D03*
D18*
X176110000Y-138380000D03*
D19*
X176110000Y-140920000D03*
X176110000Y-143460000D03*
X176110000Y-146000000D03*
D18*
X176090000Y-105830000D03*
D19*
X176090000Y-108370000D03*
X176090000Y-110910000D03*
X176090000Y-113450000D03*
D20*
X153150000Y-161270000D03*
D15*
X153150000Y-163270000D03*
D21*
X172957500Y-155820000D03*
X172957500Y-150020000D03*
D22*
X172427500Y-157240000D03*
X176607500Y-157240000D03*
X172427500Y-148600000D03*
X176607500Y-148600000D03*
D14*
X103730000Y-99720000D03*
D15*
X103730000Y-97720000D03*
X103730000Y-95720000D03*
X103730000Y-93720000D03*
D14*
X88760000Y-110410000D03*
D15*
X88760000Y-108410000D03*
X88760000Y-106410000D03*
X88760000Y-104410000D03*
D14*
X88710000Y-99720000D03*
D15*
X88710000Y-97720000D03*
X88710000Y-95720000D03*
X88710000Y-93720000D03*
D12*
X168510000Y-72080000D03*
D13*
X170510000Y-72080000D03*
D14*
X103730000Y-110400000D03*
D15*
X103730000Y-108400000D03*
X103730000Y-106400000D03*
X103730000Y-104400000D03*
D18*
X176020000Y-116600000D03*
D19*
X176020000Y-119140000D03*
X176020000Y-121680000D03*
X176020000Y-124220000D03*
D23*
X168080000Y-158080000D03*
X95880000Y-158080000D03*
D24*
X159440000Y-165950000D03*
D25*
X95880000Y-165950000D03*
D24*
X104240000Y-150210000D03*
M02*
