G04 #@! TF.GenerationSoftware,KiCad,Pcbnew,8.0.3*
G04 #@! TF.CreationDate,2024-06-18T17:58:35+02:00*
G04 #@! TF.ProjectId,Open_beehive_scale_V0.5,4f70656e-5f62-4656-9568-6976655f7363,rev?*
G04 #@! TF.SameCoordinates,Original*
G04 #@! TF.FileFunction,Soldermask,Bot*
G04 #@! TF.FilePolarity,Negative*
%FSLAX46Y46*%
G04 Gerber Fmt 4.6, Leading zero omitted, Abs format (unit mm)*
G04 Created by KiCad (PCBNEW 8.0.3) date 2024-06-18 17:58:35*
%MOMM*%
%LPD*%
G01*
G04 APERTURE LIST*
G04 Aperture macros list*
%AMRoundRect*
0 Rectangle with rounded corners*
0 $1 Rounding radius*
0 $2 $3 $4 $5 $6 $7 $8 $9 X,Y pos of 4 corners*
0 Add a 4 corners polygon primitive as box body*
4,1,4,$2,$3,$4,$5,$6,$7,$8,$9,$2,$3,0*
0 Add four circle primitives for the rounded corners*
1,1,$1+$1,$2,$3*
1,1,$1+$1,$4,$5*
1,1,$1+$1,$6,$7*
1,1,$1+$1,$8,$9*
0 Add four rect primitives between the rounded corners*
20,1,$1+$1,$2,$3,$4,$5,0*
20,1,$1+$1,$4,$5,$6,$7,0*
20,1,$1+$1,$6,$7,$8,$9,0*
20,1,$1+$1,$8,$9,$2,$3,0*%
%AMFreePoly0*
4,1,19,0.500000,-0.750000,0.000000,-0.750000,0.000000,-0.744911,-0.071157,-0.744911,-0.207708,-0.704816,-0.327430,-0.627875,-0.420627,-0.520320,-0.479746,-0.390866,-0.500000,-0.250000,-0.500000,0.250000,-0.479746,0.390866,-0.420627,0.520320,-0.327430,0.627875,-0.207708,0.704816,-0.071157,0.744911,0.000000,0.744911,0.000000,0.750000,0.500000,0.750000,0.500000,-0.750000,0.500000,-0.750000,
$1*%
%AMFreePoly1*
4,1,19,0.000000,0.744911,0.071157,0.744911,0.207708,0.704816,0.327430,0.627875,0.420627,0.520320,0.479746,0.390866,0.500000,0.250000,0.500000,-0.250000,0.479746,-0.390866,0.420627,-0.520320,0.327430,-0.627875,0.207708,-0.704816,0.071157,-0.744911,0.000000,-0.744911,0.000000,-0.750000,-0.500000,-0.750000,-0.500000,0.750000,0.000000,0.750000,0.000000,0.744911,0.000000,0.744911,
$1*%
G04 Aperture macros list end*
%ADD10FreePoly0,180.000000*%
%ADD11FreePoly1,180.000000*%
%ADD12R,2.175000X2.175000*%
%ADD13C,2.175000*%
%ADD14R,1.650000X1.650000*%
%ADD15C,1.650000*%
%ADD16C,0.001000*%
%ADD17C,1.524000*%
%ADD18RoundRect,0.250000X0.350000X0.625000X-0.350000X0.625000X-0.350000X-0.625000X0.350000X-0.625000X0*%
%ADD19O,1.200000X1.750000*%
%ADD20C,0.670000*%
%ADD21RoundRect,0.500000X0.300000X-0.000010X0.300000X0.000010X-0.300000X0.000010X-0.300000X-0.000010X0*%
%ADD22C,1.980000*%
%ADD23C,5.325000*%
%ADD24C,3.585000*%
G04 APERTURE END LIST*
D10*
X180260000Y-118170000D03*
D11*
X178960000Y-118170000D03*
D12*
X104380000Y-119810000D03*
D13*
X104380000Y-124810000D03*
D14*
X180900000Y-55590000D03*
D15*
X183440000Y-55590000D03*
X185980000Y-55590000D03*
X188520000Y-55590000D03*
D16*
X141190000Y-85080000D03*
X141190000Y-87620000D03*
D14*
X143730000Y-85080000D03*
D15*
X143730000Y-87620000D03*
D14*
X188680000Y-60750000D03*
D15*
X188680000Y-63290000D03*
X188680000Y-65830000D03*
X188680000Y-68370000D03*
D12*
X187140000Y-78370000D03*
D13*
X187140000Y-73370000D03*
D12*
X187180000Y-110980000D03*
D13*
X187180000Y-105980000D03*
D14*
X188730000Y-115170000D03*
D15*
X188730000Y-117710000D03*
X188730000Y-120250000D03*
X188730000Y-122790000D03*
D17*
X114860000Y-111280000D03*
X117400000Y-111280000D03*
X119940000Y-111280000D03*
X122480000Y-111280000D03*
X125020000Y-111280000D03*
X127560000Y-111280000D03*
X130100000Y-111280000D03*
X132640000Y-111280000D03*
D14*
X188710000Y-82620000D03*
D15*
X188710000Y-85160000D03*
X188710000Y-87700000D03*
X188710000Y-90240000D03*
D16*
X133990000Y-79100000D03*
X136530000Y-79100000D03*
D14*
X133990000Y-76560000D03*
D15*
X136530000Y-76560000D03*
D18*
X116330000Y-118720000D03*
D19*
X114330000Y-118720000D03*
D20*
X185577500Y-132610000D03*
X185577500Y-126810000D03*
D21*
X185047500Y-134030000D03*
X189227500Y-134030000D03*
X185047500Y-125390000D03*
X189227500Y-125390000D03*
D14*
X116560000Y-66030000D03*
D15*
X116560000Y-63490000D03*
X116560000Y-60950000D03*
X116560000Y-58410000D03*
D14*
X102340000Y-76730000D03*
D15*
X102340000Y-74190000D03*
X102340000Y-71650000D03*
X102340000Y-69110000D03*
D14*
X102340000Y-66020000D03*
D15*
X102340000Y-63480000D03*
X102340000Y-60940000D03*
X102340000Y-58400000D03*
D16*
X165260000Y-121050000D03*
X165260000Y-123590000D03*
D14*
X167800000Y-121050000D03*
D15*
X167800000Y-123590000D03*
D14*
X116560000Y-76710000D03*
D15*
X116560000Y-74170000D03*
X116560000Y-71630000D03*
X116560000Y-69090000D03*
D14*
X188640000Y-93390000D03*
D15*
X188640000Y-95930000D03*
X188640000Y-98470000D03*
X188640000Y-101010000D03*
D16*
X141990000Y-46800000D03*
X139450000Y-46800000D03*
D14*
X141990000Y-49340000D03*
D15*
X139450000Y-49340000D03*
D22*
X180700000Y-134870000D03*
X108500000Y-134870000D03*
D23*
X172060000Y-142740000D03*
D24*
X108500000Y-142740000D03*
D23*
X116860000Y-127000000D03*
M02*
