G04 #@! TF.GenerationSoftware,KiCad,Pcbnew,8.0.3*
G04 #@! TF.CreationDate,2024-06-18T17:58:35+02:00*
G04 #@! TF.ProjectId,Open_beehive_scale_V0.5,4f70656e-5f62-4656-9568-6976655f7363,rev?*
G04 #@! TF.SameCoordinates,Original*
G04 #@! TF.FileFunction,Profile,NP*
%FSLAX46Y46*%
G04 Gerber Fmt 4.6, Leading zero omitted, Abs format (unit mm)*
G04 Created by KiCad (PCBNEW 8.0.3) date 2024-06-18 17:58:35*
%MOMM*%
%LPD*%
G01*
G04 APERTURE LIST*
G04 #@! TA.AperFunction,Profile*
%ADD10C,0.050000*%
G04 #@! TD*
G04 APERTURE END LIST*
D10*
X101120000Y-145800000D02*
X189920000Y-145800000D01*
X111830000Y-45890000D02*
X106830000Y-45890000D01*
X189920000Y-45890000D02*
G75*
G02*
X191919975Y-47900000I0J-2000000D01*
G01*
X107780000Y-50890000D02*
X106830000Y-50890000D01*
X164370000Y-45890000D02*
X189920000Y-45890000D01*
X111830000Y-45890000D02*
G75*
G02*
X112330000Y-46390000I0J-500000D01*
G01*
X104830000Y-45890000D02*
X101120000Y-45890000D01*
X109020000Y-106630000D02*
G75*
G02*
X109520000Y-106130000I500000J0D01*
G01*
X112330000Y-50390000D02*
X112330000Y-46390000D01*
X190920000Y-48400000D02*
G75*
G02*
X187920000Y-48400000I-1500000J0D01*
G01*
X187920000Y-48400000D02*
G75*
G02*
X190920000Y-48400000I1500000J0D01*
G01*
X99120000Y-113770000D02*
G75*
G02*
X99620000Y-113270000I500000J0D01*
G01*
X105330000Y-46390000D02*
X105330000Y-51390000D01*
X113830000Y-45890000D02*
X138520000Y-45890000D01*
X113970000Y-82590000D02*
X117990000Y-89430000D01*
X106330000Y-46390000D02*
G75*
G02*
X106830000Y-45890000I500000J0D01*
G01*
X105830000Y-51890000D02*
G75*
G02*
X105330000Y-51390000I0J500000D01*
G01*
X110330000Y-51890000D02*
G75*
G02*
X110330000Y-50890000I0J500000D01*
G01*
X103120000Y-143300000D02*
G75*
G02*
X100120000Y-143300000I-1500000J0D01*
G01*
X100120000Y-143300000D02*
G75*
G02*
X103120000Y-143300000I1500000J0D01*
G01*
X113330000Y-46390000D02*
X113330000Y-51390000D01*
X99120000Y-56680000D02*
X99120000Y-82090000D01*
X134600000Y-106130000D02*
X109520000Y-106130000D01*
X112830000Y-51890000D02*
X110330000Y-51890000D01*
X110330000Y-50890000D02*
X111830000Y-50890000D01*
X112330000Y-50390000D02*
G75*
G02*
X111830000Y-50890000I-500000J0D01*
G01*
X99120000Y-47900000D02*
G75*
G02*
X101120000Y-45890025I2010000J0D01*
G01*
X191920000Y-143900000D02*
G75*
G02*
X189920000Y-145800000I-1902500J0D01*
G01*
X113330000Y-51390000D02*
G75*
G02*
X112830000Y-51890000I-500000J0D01*
G01*
X101120000Y-145800000D02*
G75*
G02*
X99120000Y-143900000I-97500J1900000D01*
G01*
X144770000Y-45890000D02*
X144770000Y-52390000D01*
X113330000Y-46390000D02*
G75*
G02*
X113830000Y-45890000I500000J0D01*
G01*
X190920000Y-143300000D02*
G75*
G02*
X187920000Y-143300000I-1500000J0D01*
G01*
X187920000Y-143300000D02*
G75*
G02*
X190920000Y-143300000I1500000J0D01*
G01*
X99620000Y-82590000D02*
G75*
G02*
X99120000Y-82090000I0J500000D01*
G01*
X99620000Y-82590000D02*
X113970000Y-82590000D01*
X106330000Y-50390000D02*
X106330000Y-46390000D01*
X99120000Y-143900000D02*
X99120000Y-113770000D01*
X117990000Y-89430000D02*
X134600000Y-89435000D01*
X106830000Y-50890000D02*
G75*
G02*
X106330000Y-50390000I0J500000D01*
G01*
X105830000Y-51890000D02*
X107780000Y-51890000D01*
X134600000Y-89435000D02*
X134600000Y-106130000D01*
X104830000Y-45890000D02*
G75*
G02*
X105330000Y-46390000I-5000J-505000D01*
G01*
X99120000Y-56680000D02*
X99120000Y-47900000D01*
X99620000Y-113270000D02*
X108520000Y-113270000D01*
X144770000Y-52390000D02*
X164370000Y-52390000D01*
X107780000Y-50890000D02*
G75*
G02*
X107780000Y-51890000I0J-500000D01*
G01*
X191920000Y-143900000D02*
X191920000Y-47900000D01*
X103120000Y-48400000D02*
G75*
G02*
X100120000Y-48400000I-1500000J0D01*
G01*
X100120000Y-48400000D02*
G75*
G02*
X103120000Y-48400000I1500000J0D01*
G01*
X164370000Y-52390000D02*
X164370000Y-45890000D01*
X144770000Y-45890000D02*
X138520000Y-45890000D01*
X109020000Y-112770000D02*
X109020000Y-106630000D01*
X109020000Y-112770000D02*
G75*
G02*
X108520000Y-113270000I-500000J0D01*
G01*
M02*
