G04 #@! TF.GenerationSoftware,KiCad,Pcbnew,8.0.3*
G04 #@! TF.CreationDate,2024-06-18T17:58:35+02:00*
G04 #@! TF.ProjectId,Open_beehive_scale_V0.5,4f70656e-5f62-4656-9568-6976655f7363,rev?*
G04 #@! TF.SameCoordinates,Original*
G04 #@! TF.FileFunction,Soldermask,Top*
G04 #@! TF.FilePolarity,Negative*
%FSLAX46Y46*%
G04 Gerber Fmt 4.6, Leading zero omitted, Abs format (unit mm)*
G04 Created by KiCad (PCBNEW 8.0.3) date 2024-06-18 17:58:35*
%MOMM*%
%LPD*%
G01*
G04 APERTURE LIST*
G04 Aperture macros list*
%AMRoundRect*
0 Rectangle with rounded corners*
0 $1 Rounding radius*
0 $2 $3 $4 $5 $6 $7 $8 $9 X,Y pos of 4 corners*
0 Add a 4 corners polygon primitive as box body*
4,1,4,$2,$3,$4,$5,$6,$7,$8,$9,$2,$3,0*
0 Add four circle primitives for the rounded corners*
1,1,$1+$1,$2,$3*
1,1,$1+$1,$4,$5*
1,1,$1+$1,$6,$7*
1,1,$1+$1,$8,$9*
0 Add four rect primitives between the rounded corners*
20,1,$1+$1,$2,$3,$4,$5,0*
20,1,$1+$1,$4,$5,$6,$7,0*
20,1,$1+$1,$6,$7,$8,$9,0*
20,1,$1+$1,$8,$9,$2,$3,0*%
%AMFreePoly0*
4,1,19,0.500000,-0.750000,0.000000,-0.750000,0.000000,-0.744911,-0.071157,-0.744911,-0.207708,-0.704816,-0.327430,-0.627875,-0.420627,-0.520320,-0.479746,-0.390866,-0.500000,-0.250000,-0.500000,0.250000,-0.479746,0.390866,-0.420627,0.520320,-0.327430,0.627875,-0.207708,0.704816,-0.071157,0.744911,0.000000,0.744911,0.000000,0.750000,0.500000,0.750000,0.500000,-0.750000,0.500000,-0.750000,
$1*%
%AMFreePoly1*
4,1,19,0.000000,0.744911,0.071157,0.744911,0.207708,0.704816,0.327430,0.627875,0.420627,0.520320,0.479746,0.390866,0.500000,0.250000,0.500000,-0.250000,0.479746,-0.390866,0.420627,-0.520320,0.327430,-0.627875,0.207708,-0.704816,0.071157,-0.744911,0.000000,-0.744911,0.000000,-0.750000,-0.500000,-0.750000,-0.500000,0.750000,0.000000,0.750000,0.000000,0.744911,0.000000,0.744911,
$1*%
G04 Aperture macros list end*
%ADD10RoundRect,0.200000X0.200000X0.275000X-0.200000X0.275000X-0.200000X-0.275000X0.200000X-0.275000X0*%
%ADD11RoundRect,0.225000X-0.225000X-0.250000X0.225000X-0.250000X0.225000X0.250000X-0.225000X0.250000X0*%
%ADD12FreePoly0,0.000000*%
%ADD13FreePoly1,0.000000*%
%ADD14RoundRect,0.250000X-0.550000X1.500000X-0.550000X-1.500000X0.550000X-1.500000X0.550000X1.500000X0*%
%ADD15RoundRect,0.225000X-0.250000X0.225000X-0.250000X-0.225000X0.250000X-0.225000X0.250000X0.225000X0*%
%ADD16RoundRect,0.250000X-0.475000X0.250000X-0.475000X-0.250000X0.475000X-0.250000X0.475000X0.250000X0*%
%ADD17RoundRect,0.250000X0.475000X-0.250000X0.475000X0.250000X-0.475000X0.250000X-0.475000X-0.250000X0*%
%ADD18RoundRect,0.250000X0.550000X-1.250000X0.550000X1.250000X-0.550000X1.250000X-0.550000X-1.250000X0*%
%ADD19RoundRect,0.237500X-0.287500X-0.237500X0.287500X-0.237500X0.287500X0.237500X-0.287500X0.237500X0*%
%ADD20R,1.240000X1.120000*%
%ADD21R,3.200000X2.250000*%
%ADD22R,0.650000X1.525000*%
%ADD23R,2.175000X2.175000*%
%ADD24C,2.175000*%
%ADD25R,1.650000X1.650000*%
%ADD26C,1.650000*%
%ADD27R,3.650000X3.750000*%
%ADD28RoundRect,0.200000X-0.200000X-0.275000X0.200000X-0.275000X0.200000X0.275000X-0.200000X0.275000X0*%
%ADD29RoundRect,0.200000X0.275000X-0.200000X0.275000X0.200000X-0.275000X0.200000X-0.275000X-0.200000X0*%
%ADD30RoundRect,0.200000X-0.275000X0.200000X-0.275000X-0.200000X0.275000X-0.200000X0.275000X0.200000X0*%
%ADD31RoundRect,0.250000X-0.362500X-1.425000X0.362500X-1.425000X0.362500X1.425000X-0.362500X1.425000X0*%
%ADD32R,0.300000X0.750000*%
%ADD33R,1.300000X0.900000*%
%ADD34R,0.500000X0.300000*%
%ADD35C,0.001000*%
%ADD36RoundRect,0.150000X-0.587500X-0.150000X0.587500X-0.150000X0.587500X0.150000X-0.587500X0.150000X0*%
%ADD37RoundRect,0.225000X0.225000X0.250000X-0.225000X0.250000X-0.225000X-0.250000X0.225000X-0.250000X0*%
%ADD38RoundRect,0.225000X0.250000X-0.225000X0.250000X0.225000X-0.250000X0.225000X-0.250000X-0.225000X0*%
%ADD39R,0.600000X0.450000*%
%ADD40R,1.500000X2.000000*%
%ADD41R,0.700000X1.200000*%
%ADD42R,1.000000X0.800000*%
%ADD43R,1.000000X1.200000*%
%ADD44R,1.000000X2.800000*%
%ADD45R,1.300000X1.900000*%
%ADD46RoundRect,0.218750X0.218750X0.256250X-0.218750X0.256250X-0.218750X-0.256250X0.218750X-0.256250X0*%
%ADD47RoundRect,0.250000X-0.250000X-0.475000X0.250000X-0.475000X0.250000X0.475000X-0.250000X0.475000X0*%
%ADD48RoundRect,0.100000X-0.637500X-0.100000X0.637500X-0.100000X0.637500X0.100000X-0.637500X0.100000X0*%
%ADD49RoundRect,0.150000X0.512500X0.150000X-0.512500X0.150000X-0.512500X-0.150000X0.512500X-0.150000X0*%
%ADD50R,0.420000X0.550000*%
%ADD51C,1.524000*%
%ADD52RoundRect,0.150000X-0.150000X0.587500X-0.150000X-0.587500X0.150000X-0.587500X0.150000X0.587500X0*%
%ADD53R,1.525000X0.700000*%
%ADD54R,1.400000X0.600000*%
%ADD55R,1.500000X0.900000*%
%ADD56R,0.900000X1.500000*%
%ADD57R,1.000000X1.000000*%
%ADD58R,0.600000X0.700000*%
%ADD59C,3.000000*%
%ADD60R,1.200000X0.600000*%
%ADD61RoundRect,0.250000X0.350000X0.625000X-0.350000X0.625000X-0.350000X-0.625000X0.350000X-0.625000X0*%
%ADD62O,1.200000X1.750000*%
%ADD63C,0.670000*%
%ADD64R,1.450000X0.300000*%
%ADD65RoundRect,0.500000X0.300000X-0.000010X0.300000X0.000010X-0.300000X0.000010X-0.300000X-0.000010X0*%
%ADD66R,1.050000X0.450000*%
%ADD67R,0.950000X0.550000*%
%ADD68C,1.980000*%
%ADD69C,5.325000*%
%ADD70C,3.585000*%
G04 APERTURE END LIST*
D10*
X181665000Y-117540000D03*
X180015000Y-117540000D03*
D11*
X180015000Y-119030000D03*
X181565000Y-119030000D03*
D12*
X135060000Y-111270000D03*
D13*
X136360000Y-111270000D03*
D12*
X147760000Y-121830000D03*
D13*
X149060000Y-121830000D03*
D14*
X115245000Y-133900000D03*
X115245000Y-139300000D03*
D15*
X134710000Y-133175000D03*
X134710000Y-134725000D03*
D16*
X132980000Y-133180000D03*
X132980000Y-135080000D03*
D15*
X148180000Y-137065000D03*
X148180000Y-138615000D03*
D11*
X157625000Y-126540000D03*
X159175000Y-126540000D03*
X139115000Y-140460000D03*
X140665000Y-140460000D03*
D17*
X149030000Y-128825000D03*
X149030000Y-126925000D03*
D18*
X153000000Y-128800000D03*
X153000000Y-124400000D03*
D11*
X109687391Y-49147391D03*
X111237391Y-49147391D03*
D19*
X103826250Y-116100000D03*
X105576250Y-116100000D03*
D20*
X112650000Y-130690000D03*
X109650000Y-130690000D03*
D19*
X144865000Y-142332000D03*
X146615000Y-142332000D03*
X144885000Y-140782000D03*
X146635000Y-140782000D03*
D21*
X128800000Y-130050000D03*
X128800000Y-136950000D03*
X122645000Y-130025000D03*
X122645000Y-136925000D03*
D22*
X140690000Y-138702000D03*
X141690000Y-138702000D03*
X142690000Y-138702000D03*
X143690000Y-138702000D03*
X144690000Y-138702000D03*
X144690000Y-133278000D03*
X143690000Y-133278000D03*
X142690000Y-133278000D03*
X141690000Y-133278000D03*
X140690000Y-133278000D03*
D23*
X104380000Y-119810000D03*
D24*
X104380000Y-124810000D03*
D25*
X180900000Y-55590000D03*
D26*
X183440000Y-55590000D03*
X185980000Y-55590000D03*
X188520000Y-55590000D03*
D27*
X122660000Y-121480000D03*
X134360000Y-121480000D03*
D28*
X107036250Y-116090000D03*
X108686250Y-116090000D03*
D29*
X146610000Y-138665000D03*
X146610000Y-137015000D03*
D28*
X140515000Y-142330000D03*
X142165000Y-142330000D03*
D30*
X148080000Y-133275000D03*
X148080000Y-134925000D03*
D29*
X146580000Y-134925000D03*
X146580000Y-133275000D03*
D31*
X140257500Y-128820000D03*
X146182500Y-128820000D03*
D32*
X157100000Y-124600000D03*
X157600000Y-124600000D03*
X158100000Y-124600000D03*
X158600000Y-124600000D03*
X158600000Y-122600000D03*
X158100000Y-122600000D03*
X157600000Y-122600000D03*
X157100000Y-122600000D03*
D33*
X157850000Y-123600000D03*
D34*
X108287391Y-46872391D03*
X108287391Y-47672391D03*
X109687391Y-47672391D03*
X109687391Y-46872391D03*
D29*
X140770000Y-92335000D03*
X140770000Y-90685000D03*
D16*
X143340625Y-110990000D03*
X143340625Y-112890000D03*
D29*
X179590000Y-64355000D03*
X179590000Y-62705000D03*
D17*
X180950000Y-69200000D03*
X180950000Y-67300000D03*
D16*
X162180000Y-132380000D03*
X162180000Y-134280000D03*
D29*
X138920000Y-56465000D03*
X138920000Y-54815000D03*
X121040000Y-73805000D03*
X121040000Y-72155000D03*
D35*
X141190000Y-85080000D03*
X141190000Y-87620000D03*
D25*
X143730000Y-85080000D03*
D26*
X143730000Y-87620000D03*
D25*
X188680000Y-60750000D03*
D26*
X188680000Y-63290000D03*
X188680000Y-65830000D03*
X188680000Y-68370000D03*
D17*
X180820000Y-112000000D03*
X180820000Y-110100000D03*
D15*
X169240000Y-132345000D03*
X169240000Y-133895000D03*
D36*
X176002500Y-110040000D03*
X176002500Y-111940000D03*
X177877500Y-110990000D03*
D37*
X156785000Y-139750000D03*
X155235000Y-139750000D03*
D38*
X173850000Y-119535000D03*
X173850000Y-117985000D03*
D29*
X179330000Y-107025000D03*
X179330000Y-105375000D03*
X178030000Y-65935000D03*
X178030000Y-64285000D03*
D38*
X174420000Y-89805000D03*
X174420000Y-88255000D03*
D11*
X168875000Y-99400000D03*
X170425000Y-99400000D03*
D39*
X173010000Y-132830000D03*
X175110000Y-132830000D03*
D11*
X174315000Y-84970000D03*
X175865000Y-84970000D03*
D30*
X122290000Y-85275000D03*
X122290000Y-86925000D03*
D29*
X188760000Y-138065000D03*
X188760000Y-136415000D03*
D30*
X125020000Y-85275000D03*
X125020000Y-86925000D03*
D23*
X187140000Y-78370000D03*
D24*
X187140000Y-73370000D03*
D40*
X157490000Y-91840000D03*
X157490000Y-83640000D03*
D41*
X125550000Y-62460000D03*
X126650000Y-62460000D03*
X127750000Y-62460000D03*
X128850000Y-62460000D03*
X129950000Y-62460000D03*
X131050000Y-62460000D03*
X132150000Y-62460000D03*
X133250000Y-62460000D03*
X134200000Y-62460000D03*
D42*
X135150000Y-51960000D03*
D43*
X135150000Y-58160000D03*
D44*
X135150000Y-47810000D03*
D43*
X124000000Y-62460000D03*
D45*
X121650000Y-47360000D03*
D46*
X179567500Y-99340000D03*
X177992500Y-99340000D03*
D30*
X127770000Y-85275000D03*
X127770000Y-86925000D03*
D15*
X180970000Y-85175000D03*
X180970000Y-86725000D03*
D30*
X131890000Y-85295000D03*
X131890000Y-86945000D03*
D17*
X180970000Y-83640000D03*
X180970000Y-81740000D03*
D29*
X179510000Y-92625000D03*
X179510000Y-90975000D03*
D23*
X187180000Y-110980000D03*
D24*
X187180000Y-105980000D03*
D47*
X174330000Y-86690000D03*
X176230000Y-86690000D03*
X174070000Y-114990000D03*
X175970000Y-114990000D03*
D36*
X176202500Y-81570000D03*
X176202500Y-83470000D03*
X178077500Y-82520000D03*
D48*
X123367500Y-73415000D03*
X123367500Y-74065000D03*
X123367500Y-74715000D03*
X123367500Y-75365000D03*
X123367500Y-76015000D03*
X123367500Y-76665000D03*
X123367500Y-77315000D03*
X123367500Y-77965000D03*
X123367500Y-78615000D03*
X123367500Y-79265000D03*
X123367500Y-79915000D03*
X123367500Y-80565000D03*
X129092500Y-80565000D03*
X129092500Y-79915000D03*
X129092500Y-79265000D03*
X129092500Y-78615000D03*
X129092500Y-77965000D03*
X129092500Y-77315000D03*
X129092500Y-76665000D03*
X129092500Y-76015000D03*
X129092500Y-75365000D03*
X129092500Y-74715000D03*
X129092500Y-74065000D03*
X129092500Y-73415000D03*
D30*
X120930000Y-85275000D03*
X120930000Y-86925000D03*
D49*
X167667500Y-132380000D03*
X167667500Y-131430000D03*
X167667500Y-130480000D03*
X165392500Y-130480000D03*
X165392500Y-132380000D03*
D50*
X178430000Y-129940000D03*
X178430000Y-128540000D03*
D15*
X163820000Y-132375000D03*
X163820000Y-133925000D03*
D10*
X158925000Y-97810000D03*
X157275000Y-97810000D03*
D49*
X148900000Y-117680000D03*
X148900000Y-116730000D03*
X148900000Y-115780000D03*
X146625000Y-115780000D03*
X146625000Y-117680000D03*
D25*
X188730000Y-115170000D03*
D26*
X188730000Y-117710000D03*
X188730000Y-120250000D03*
X188730000Y-122790000D03*
D29*
X177870000Y-108645000D03*
X177870000Y-106995000D03*
D15*
X180950000Y-70785000D03*
X180950000Y-72335000D03*
D17*
X177865000Y-53000000D03*
X177865000Y-51100000D03*
D15*
X180920000Y-99335000D03*
X180920000Y-100885000D03*
D51*
X114860000Y-111280000D03*
X117400000Y-111280000D03*
X119940000Y-111280000D03*
X122480000Y-111280000D03*
X125020000Y-111280000D03*
X127560000Y-111280000D03*
X130100000Y-111280000D03*
X132640000Y-111280000D03*
D11*
X174155000Y-99070000D03*
X175705000Y-99070000D03*
D52*
X138180000Y-133182500D03*
X136280000Y-133182500D03*
X137230000Y-135057500D03*
D11*
X168805000Y-113620000D03*
X170355000Y-113620000D03*
D16*
X150860625Y-110850000D03*
X150860625Y-112750000D03*
D28*
X174565000Y-53000000D03*
X176215000Y-53000000D03*
D11*
X168725000Y-85110000D03*
X170275000Y-85110000D03*
D28*
X151225000Y-104700000D03*
X152875000Y-104700000D03*
D29*
X187360000Y-138095000D03*
X187360000Y-136445000D03*
D46*
X179577500Y-70760000D03*
X178002500Y-70760000D03*
X179457500Y-113510000D03*
X177882500Y-113510000D03*
D25*
X188710000Y-82620000D03*
D26*
X188710000Y-85160000D03*
X188710000Y-87700000D03*
X188710000Y-90240000D03*
D28*
X175865000Y-88260000D03*
X177515000Y-88260000D03*
D53*
X172652000Y-83475000D03*
X172652000Y-82205000D03*
X172652000Y-80935000D03*
X172652000Y-79665000D03*
X172652000Y-78395000D03*
X172652000Y-77125000D03*
X172652000Y-75855000D03*
X172652000Y-74585000D03*
X167228000Y-74585000D03*
X167228000Y-75855000D03*
X167228000Y-77125000D03*
X167228000Y-78395000D03*
X167228000Y-79665000D03*
X167228000Y-80935000D03*
X167228000Y-82205000D03*
X167228000Y-83475000D03*
D54*
X155325000Y-133420000D03*
X155325000Y-134370000D03*
X155325000Y-135320000D03*
X157625000Y-133420000D03*
X157625000Y-134370000D03*
X157625000Y-135320000D03*
D29*
X130555000Y-67905000D03*
X130555000Y-66255000D03*
D53*
X172612000Y-97785000D03*
X172612000Y-96515000D03*
X172612000Y-95245000D03*
X172612000Y-93975000D03*
X172612000Y-92705000D03*
X172612000Y-91435000D03*
X172612000Y-90165000D03*
X172612000Y-88895000D03*
X167188000Y-88895000D03*
X167188000Y-90165000D03*
X167188000Y-91435000D03*
X167188000Y-92705000D03*
X167188000Y-93975000D03*
X167188000Y-95245000D03*
X167188000Y-96515000D03*
X167188000Y-97785000D03*
D55*
X145820000Y-53760000D03*
X145820000Y-55030000D03*
X145820000Y-56300000D03*
X145820000Y-57570000D03*
X145820000Y-58840000D03*
X145820000Y-60110000D03*
X145820000Y-61380000D03*
X145820000Y-62650000D03*
X145820000Y-63920000D03*
X145820000Y-65190000D03*
X145820000Y-66460000D03*
X145820000Y-67730000D03*
X145820000Y-69000000D03*
X145820000Y-70270000D03*
D56*
X147585000Y-71520000D03*
X148855000Y-71520000D03*
X150125000Y-71520000D03*
X151395000Y-71520000D03*
X152665000Y-71520000D03*
X153935000Y-71520000D03*
X155205000Y-71520000D03*
X156475000Y-71520000D03*
X157745000Y-71520000D03*
X159015000Y-71520000D03*
X160285000Y-71520000D03*
X161555000Y-71520000D03*
D55*
X163320000Y-70270000D03*
X163320000Y-69000000D03*
X163320000Y-67730000D03*
X163320000Y-66460000D03*
X163320000Y-65190000D03*
X163320000Y-63920000D03*
X163320000Y-62650000D03*
X163320000Y-61380000D03*
X163320000Y-60110000D03*
X163320000Y-58840000D03*
X163320000Y-57570000D03*
X163320000Y-56300000D03*
X163320000Y-55030000D03*
X163320000Y-53760000D03*
D57*
X151710000Y-57610000D03*
X151710000Y-59110000D03*
X151710000Y-60610000D03*
X153210000Y-57610000D03*
X153210000Y-59110000D03*
X153210000Y-60610000D03*
X154710000Y-57610000D03*
X154710000Y-59110000D03*
X154710000Y-60610000D03*
D58*
X143130000Y-80780000D03*
X141230000Y-80780000D03*
X142180000Y-82780000D03*
D28*
X150435000Y-106530000D03*
X152085000Y-106530000D03*
D15*
X129195000Y-67905000D03*
X129195000Y-69455000D03*
D35*
X133990000Y-79100000D03*
X136530000Y-79100000D03*
D25*
X133990000Y-76560000D03*
D26*
X136530000Y-76560000D03*
D29*
X178090000Y-80245000D03*
X178090000Y-78595000D03*
D28*
X175795000Y-104100000D03*
X177445000Y-104100000D03*
D30*
X130530000Y-85275000D03*
X130530000Y-86925000D03*
D59*
X104860000Y-138820000D03*
D47*
X174300000Y-72450000D03*
X176200000Y-72450000D03*
D59*
X116870000Y-53370000D03*
D47*
X174170000Y-100780000D03*
X176070000Y-100780000D03*
D52*
X151930000Y-137220000D03*
X150030000Y-137220000D03*
X150980000Y-139095000D03*
D11*
X168795000Y-70720000D03*
X170345000Y-70720000D03*
D38*
X174870000Y-75595000D03*
X174870000Y-74045000D03*
D53*
X172592000Y-111985000D03*
X172592000Y-110715000D03*
X172592000Y-109445000D03*
X172592000Y-108175000D03*
X172592000Y-106905000D03*
X172592000Y-105635000D03*
X172592000Y-104365000D03*
X172592000Y-103095000D03*
X167168000Y-103095000D03*
X167168000Y-104365000D03*
X167168000Y-105635000D03*
X167168000Y-106905000D03*
X167168000Y-108175000D03*
X167168000Y-109445000D03*
X167168000Y-110715000D03*
X167168000Y-111985000D03*
D28*
X175865000Y-89810000D03*
X177515000Y-89810000D03*
D60*
X157720000Y-138420000D03*
X157720000Y-137470000D03*
X157720000Y-136520000D03*
X155220000Y-136520000D03*
X155220000Y-137470000D03*
X155220000Y-138420000D03*
D61*
X116330000Y-118720000D03*
D62*
X114330000Y-118720000D03*
D15*
X145062500Y-117685000D03*
X145062500Y-119235000D03*
D11*
X174035000Y-113230000D03*
X175585000Y-113230000D03*
D16*
X170870000Y-132380000D03*
X170870000Y-134280000D03*
D11*
X174285000Y-70590000D03*
X175835000Y-70590000D03*
D63*
X185577500Y-132610000D03*
X185577500Y-126810000D03*
D64*
X184127500Y-133110000D03*
X184127500Y-132310000D03*
X184127500Y-130960000D03*
X184127500Y-129960000D03*
X184127500Y-129460000D03*
X184127500Y-128460000D03*
X184127500Y-127110000D03*
X184127500Y-126310000D03*
X184127500Y-126610000D03*
X184127500Y-127410000D03*
X184127500Y-127960000D03*
X184127500Y-128960000D03*
X184127500Y-130460000D03*
X184127500Y-131460000D03*
X184127500Y-132010000D03*
X184127500Y-132810000D03*
D65*
X185047500Y-134030000D03*
X189227500Y-134030000D03*
X185047500Y-125390000D03*
X189227500Y-125390000D03*
D36*
X177032500Y-132400000D03*
X177032500Y-134300000D03*
X178907500Y-133350000D03*
D29*
X179590000Y-78615000D03*
X179590000Y-76965000D03*
X127765000Y-67885000D03*
X127765000Y-66235000D03*
D16*
X141860000Y-55020000D03*
X141860000Y-56920000D03*
D25*
X116560000Y-66030000D03*
D26*
X116560000Y-63490000D03*
X116560000Y-60950000D03*
X116560000Y-58410000D03*
D66*
X177410000Y-120515000D03*
X177410000Y-121165000D03*
X177410000Y-121815000D03*
X177410000Y-122465000D03*
X180010000Y-122465000D03*
X180010000Y-121815000D03*
X180010000Y-121165000D03*
X180010000Y-120515000D03*
D38*
X171315000Y-52975000D03*
X171315000Y-51425000D03*
D30*
X123640000Y-85275000D03*
X123640000Y-86925000D03*
D10*
X174925000Y-131100000D03*
X173275000Y-131100000D03*
D36*
X176122500Y-95890000D03*
X176122500Y-97790000D03*
X177997500Y-96840000D03*
D50*
X181050000Y-131550000D03*
X181050000Y-132950000D03*
D38*
X174760000Y-64285000D03*
X174760000Y-62735000D03*
D30*
X129150000Y-85275000D03*
X129150000Y-86925000D03*
D29*
X180000000Y-125585000D03*
X180000000Y-123935000D03*
D59*
X184080000Y-75220000D03*
D28*
X176315000Y-75590000D03*
X177965000Y-75590000D03*
D38*
X174870000Y-78665000D03*
X174870000Y-77115000D03*
D15*
X180820000Y-113515000D03*
X180820000Y-115065000D03*
D10*
X159925000Y-139730000D03*
X158275000Y-139730000D03*
D30*
X126400000Y-85275000D03*
X126400000Y-86925000D03*
D38*
X127800000Y-72125000D03*
X127800000Y-70575000D03*
D59*
X184310000Y-141880000D03*
D46*
X179627500Y-85150000D03*
X178052500Y-85150000D03*
D53*
X172610000Y-69090000D03*
X172610000Y-67820000D03*
X172610000Y-66550000D03*
X172610000Y-65280000D03*
X172610000Y-64010000D03*
X172610000Y-62740000D03*
X172610000Y-61470000D03*
X172610000Y-60200000D03*
X167186000Y-60200000D03*
X167186000Y-61470000D03*
X167186000Y-62740000D03*
X167186000Y-64010000D03*
X167186000Y-65280000D03*
X167186000Y-66550000D03*
X167186000Y-67820000D03*
X167186000Y-69090000D03*
D38*
X174940000Y-61235000D03*
X174940000Y-59685000D03*
D10*
X175405000Y-121020000D03*
X173755000Y-121020000D03*
D16*
X143422500Y-117680000D03*
X143422500Y-119580000D03*
D28*
X175805000Y-102570000D03*
X177455000Y-102570000D03*
D38*
X175320000Y-119535000D03*
X175320000Y-117985000D03*
X174410000Y-104095000D03*
X174410000Y-102545000D03*
D17*
X172990000Y-53000000D03*
X172990000Y-51100000D03*
D67*
X169260000Y-52995000D03*
X169260000Y-51745000D03*
X169260000Y-50495000D03*
X169260000Y-49245000D03*
X167110000Y-49245000D03*
X167110000Y-50495000D03*
X167110000Y-51745000D03*
X167110000Y-52995000D03*
D15*
X152530625Y-111195000D03*
X152530625Y-112745000D03*
D47*
X157290000Y-95670000D03*
X159190000Y-95670000D03*
D16*
X152040000Y-117660000D03*
X152040000Y-119560000D03*
D25*
X102340000Y-76730000D03*
D26*
X102340000Y-74190000D03*
X102340000Y-71650000D03*
X102340000Y-69110000D03*
D17*
X180920000Y-97720000D03*
X180920000Y-95820000D03*
D15*
X182360000Y-121145000D03*
X182360000Y-122695000D03*
D49*
X149158125Y-111020000D03*
X149158125Y-110070000D03*
X149158125Y-109120000D03*
X146883125Y-109120000D03*
X146883125Y-111020000D03*
D30*
X133250000Y-85315000D03*
X133250000Y-86965000D03*
D28*
X159585000Y-137470000D03*
X161235000Y-137470000D03*
D37*
X175375000Y-122520000D03*
X173825000Y-122520000D03*
D25*
X102340000Y-66020000D03*
D26*
X102340000Y-63480000D03*
X102340000Y-60940000D03*
X102340000Y-58400000D03*
D38*
X174420000Y-92975000D03*
X174420000Y-91425000D03*
D35*
X165260000Y-121050000D03*
X165260000Y-123590000D03*
D25*
X167800000Y-121050000D03*
D26*
X167800000Y-123590000D03*
D38*
X143700000Y-55045000D03*
X143700000Y-53495000D03*
D15*
X145150625Y-111025000D03*
X145150625Y-112575000D03*
D25*
X116560000Y-76710000D03*
D26*
X116560000Y-74170000D03*
X116560000Y-71630000D03*
X116560000Y-69090000D03*
D25*
X188640000Y-93390000D03*
D26*
X188640000Y-95930000D03*
X188640000Y-98470000D03*
X188640000Y-101010000D03*
D35*
X141990000Y-46800000D03*
X139450000Y-46800000D03*
D25*
X141990000Y-49340000D03*
D26*
X139450000Y-49340000D03*
D29*
X126375000Y-67905000D03*
X126375000Y-66255000D03*
X185950000Y-138095000D03*
X185950000Y-136445000D03*
D28*
X176245000Y-59680000D03*
X177895000Y-59680000D03*
D29*
X177990000Y-94275000D03*
X177990000Y-92625000D03*
D36*
X176122500Y-67180000D03*
X176122500Y-69080000D03*
X177997500Y-68130000D03*
D28*
X176235000Y-61200000D03*
X177885000Y-61200000D03*
X176315000Y-74070000D03*
X177965000Y-74070000D03*
D15*
X150450000Y-117685000D03*
X150450000Y-119235000D03*
X175330000Y-124005000D03*
X175330000Y-125555000D03*
D50*
X179840000Y-130620000D03*
X179840000Y-129220000D03*
D38*
X174420000Y-107145000D03*
X174420000Y-105595000D03*
D68*
X180700000Y-134870000D03*
X108500000Y-134870000D03*
D69*
X172060000Y-142740000D03*
D70*
X108500000Y-142740000D03*
D69*
X116860000Y-127000000D03*
M02*
