G04 #@! TF.GenerationSoftware,KiCad,Pcbnew,7.0.2*
G04 #@! TF.CreationDate,2023-04-26T00:03:42+02:00*
G04 #@! TF.ProjectId,ruche,72756368-652e-46b6-9963-61645f706362,rev?*
G04 #@! TF.SameCoordinates,Original*
G04 #@! TF.FileFunction,Paste,Top*
G04 #@! TF.FilePolarity,Positive*
%FSLAX46Y46*%
G04 Gerber Fmt 4.6, Leading zero omitted, Abs format (unit mm)*
G04 Created by KiCad (PCBNEW 7.0.2) date 2023-04-26 00:03:42*
%MOMM*%
%LPD*%
G01*
G04 APERTURE LIST*
G04 Aperture macros list*
%AMRoundRect*
0 Rectangle with rounded corners*
0 $1 Rounding radius*
0 $2 $3 $4 $5 $6 $7 $8 $9 X,Y pos of 4 corners*
0 Add a 4 corners polygon primitive as box body*
4,1,4,$2,$3,$4,$5,$6,$7,$8,$9,$2,$3,0*
0 Add four circle primitives for the rounded corners*
1,1,$1+$1,$2,$3*
1,1,$1+$1,$4,$5*
1,1,$1+$1,$6,$7*
1,1,$1+$1,$8,$9*
0 Add four rect primitives between the rounded corners*
20,1,$1+$1,$2,$3,$4,$5,0*
20,1,$1+$1,$4,$5,$6,$7,0*
20,1,$1+$1,$6,$7,$8,$9,0*
20,1,$1+$1,$8,$9,$2,$3,0*%
G04 Aperture macros list end*
%ADD10RoundRect,0.250000X-0.550000X1.500000X-0.550000X-1.500000X0.550000X-1.500000X0.550000X1.500000X0*%
%ADD11RoundRect,0.225000X-0.250000X0.225000X-0.250000X-0.225000X0.250000X-0.225000X0.250000X0.225000X0*%
%ADD12RoundRect,0.250000X-0.475000X0.250000X-0.475000X-0.250000X0.475000X-0.250000X0.475000X0.250000X0*%
%ADD13RoundRect,0.225000X-0.225000X-0.250000X0.225000X-0.250000X0.225000X0.250000X-0.225000X0.250000X0*%
%ADD14RoundRect,0.250000X0.475000X-0.250000X0.475000X0.250000X-0.475000X0.250000X-0.475000X-0.250000X0*%
%ADD15RoundRect,0.250000X0.550000X-1.250000X0.550000X1.250000X-0.550000X1.250000X-0.550000X-1.250000X0*%
%ADD16RoundRect,0.212500X-0.400000X-0.212500X0.400000X-0.212500X0.400000X0.212500X-0.400000X0.212500X0*%
%ADD17R,1.240000X1.120000*%
%ADD18R,3.200000X2.250000*%
%ADD19R,0.650000X1.525000*%
%ADD20R,3.650000X3.750000*%
%ADD21R,0.800000X0.900000*%
%ADD22RoundRect,0.200000X-0.200000X-0.275000X0.200000X-0.275000X0.200000X0.275000X-0.200000X0.275000X0*%
%ADD23RoundRect,0.200000X0.275000X-0.200000X0.275000X0.200000X-0.275000X0.200000X-0.275000X-0.200000X0*%
%ADD24RoundRect,0.200000X-0.275000X0.200000X-0.275000X-0.200000X0.275000X-0.200000X0.275000X0.200000X0*%
%ADD25RoundRect,0.250000X-0.362500X-1.425000X0.362500X-1.425000X0.362500X1.425000X-0.362500X1.425000X0*%
%ADD26R,0.300000X0.750000*%
%ADD27R,1.300000X0.900000*%
%ADD28R,2.500000X1.000000*%
%ADD29R,0.500000X0.300000*%
%ADD30RoundRect,0.225000X0.250000X-0.225000X0.250000X0.225000X-0.250000X0.225000X-0.250000X-0.225000X0*%
%ADD31R,0.650000X0.400000*%
%ADD32RoundRect,0.150000X-0.587500X-0.150000X0.587500X-0.150000X0.587500X0.150000X-0.587500X0.150000X0*%
%ADD33RoundRect,0.225000X0.225000X0.250000X-0.225000X0.250000X-0.225000X-0.250000X0.225000X-0.250000X0*%
%ADD34R,0.600000X0.450000*%
%ADD35R,0.700000X1.200000*%
%ADD36R,1.000000X0.800000*%
%ADD37R,1.000000X1.200000*%
%ADD38R,1.000000X2.800000*%
%ADD39R,1.300000X1.900000*%
%ADD40RoundRect,0.218750X0.218750X0.256250X-0.218750X0.256250X-0.218750X-0.256250X0.218750X-0.256250X0*%
%ADD41RoundRect,0.218750X-0.256250X0.218750X-0.256250X-0.218750X0.256250X-0.218750X0.256250X0.218750X0*%
%ADD42RoundRect,0.250000X-0.250000X-0.475000X0.250000X-0.475000X0.250000X0.475000X-0.250000X0.475000X0*%
%ADD43RoundRect,0.100000X-0.637500X-0.100000X0.637500X-0.100000X0.637500X0.100000X-0.637500X0.100000X0*%
%ADD44RoundRect,0.150000X0.512500X0.150000X-0.512500X0.150000X-0.512500X-0.150000X0.512500X-0.150000X0*%
%ADD45R,0.420000X0.550000*%
%ADD46RoundRect,0.250000X0.275000X-0.275000X0.275000X0.275000X-0.275000X0.275000X-0.275000X-0.275000X0*%
%ADD47RoundRect,0.062500X0.062500X-0.350000X0.062500X0.350000X-0.062500X0.350000X-0.062500X-0.350000X0*%
%ADD48RoundRect,0.062500X0.350000X-0.062500X0.350000X0.062500X-0.350000X0.062500X-0.350000X-0.062500X0*%
%ADD49R,2.000000X1.500000*%
%ADD50R,1.525000X0.700000*%
%ADD51R,1.400000X0.600000*%
%ADD52R,1.200000X0.600000*%
%ADD53R,1.450000X0.300000*%
%ADD54RoundRect,0.200000X0.200000X0.275000X-0.200000X0.275000X-0.200000X-0.275000X0.200000X-0.275000X0*%
%ADD55R,1.500000X2.000000*%
%ADD56R,1.500000X0.900000*%
%ADD57R,0.900000X1.500000*%
%ADD58R,0.950000X0.550000*%
G04 APERTURE END LIST*
D10*
X102625000Y-157110000D03*
X102625000Y-162510000D03*
D11*
X122060000Y-156385000D03*
X122060000Y-157935000D03*
D12*
X120290000Y-156390000D03*
X120290000Y-158290000D03*
D11*
X135560000Y-160275000D03*
X135560000Y-161825000D03*
D13*
X145005000Y-149750000D03*
X146555000Y-149750000D03*
X126495000Y-163600000D03*
X128045000Y-163600000D03*
D14*
X136410000Y-152035000D03*
X136410000Y-150135000D03*
D15*
X140380000Y-152010000D03*
X140380000Y-147610000D03*
D13*
X97067391Y-72357391D03*
X98617391Y-72357391D03*
D16*
X91268750Y-139310000D03*
X92893750Y-139310000D03*
D17*
X100030000Y-153900000D03*
X97030000Y-153900000D03*
D16*
X132307500Y-165542000D03*
X133932500Y-165542000D03*
X132327500Y-163992000D03*
X133952500Y-163992000D03*
D18*
X116180000Y-153260000D03*
X116180000Y-160160000D03*
X110025000Y-153235000D03*
X110025000Y-160135000D03*
D19*
X128070000Y-161912000D03*
X129070000Y-161912000D03*
X130070000Y-161912000D03*
X131070000Y-161912000D03*
X132070000Y-161912000D03*
X132070000Y-156488000D03*
X131070000Y-156488000D03*
X130070000Y-156488000D03*
X129070000Y-156488000D03*
X128070000Y-156488000D03*
D20*
X110040000Y-144690000D03*
X121740000Y-144690000D03*
D21*
X125540000Y-156350000D03*
X123640000Y-156350000D03*
X124590000Y-158350000D03*
D22*
X94416250Y-139300000D03*
X96066250Y-139300000D03*
D23*
X133990000Y-161875000D03*
X133990000Y-160225000D03*
D22*
X127895000Y-165540000D03*
X129545000Y-165540000D03*
D24*
X135460000Y-156485000D03*
X135460000Y-158135000D03*
D23*
X133960000Y-158135000D03*
X133960000Y-156485000D03*
D25*
X127637500Y-152030000D03*
X133562500Y-152030000D03*
D26*
X144480000Y-147810000D03*
X144980000Y-147810000D03*
X145480000Y-147810000D03*
X145980000Y-147810000D03*
X145980000Y-145810000D03*
X145480000Y-145810000D03*
X144980000Y-145810000D03*
X144480000Y-145810000D03*
D27*
X145230000Y-146810000D03*
D28*
X105065000Y-131360000D03*
X105065000Y-128820000D03*
X105065000Y-126280000D03*
X105065000Y-123740000D03*
X105065000Y-121200000D03*
X105065000Y-118660000D03*
X89565000Y-118660000D03*
X89565000Y-121200000D03*
X89565000Y-123740000D03*
X89565000Y-126280000D03*
X89565000Y-128820000D03*
X89565000Y-131360000D03*
D29*
X95667391Y-70082391D03*
X95667391Y-70882391D03*
X97067391Y-70882391D03*
X97067391Y-70082391D03*
D11*
X109765000Y-123750000D03*
X109765000Y-125300000D03*
D12*
X111590000Y-123750000D03*
X111590000Y-125650000D03*
D23*
X128270000Y-115605000D03*
X128270000Y-113955000D03*
D12*
X130668750Y-135220000D03*
X130668750Y-137120000D03*
D30*
X109780000Y-121215000D03*
X109780000Y-119665000D03*
D23*
X166970000Y-87565000D03*
X166970000Y-85915000D03*
D14*
X168330000Y-92410000D03*
X168330000Y-90510000D03*
D12*
X149560000Y-155590000D03*
X149560000Y-157490000D03*
D31*
X155260000Y-148400000D03*
X155260000Y-149050000D03*
X155260000Y-149700000D03*
X157160000Y-149700000D03*
X157160000Y-149050000D03*
X157160000Y-148400000D03*
D23*
X151090000Y-108635000D03*
X151090000Y-106985000D03*
X108340000Y-96995000D03*
X108340000Y-95345000D03*
D14*
X168200000Y-135210000D03*
X168200000Y-133310000D03*
D11*
X156620000Y-155555000D03*
X156620000Y-157105000D03*
D32*
X163382500Y-133250000D03*
X163382500Y-135150000D03*
X165257500Y-134200000D03*
D33*
X142165000Y-162890000D03*
X140615000Y-162890000D03*
D23*
X166710000Y-130235000D03*
X166710000Y-128585000D03*
D22*
X166215000Y-148530000D03*
X167865000Y-148530000D03*
D23*
X165410000Y-89145000D03*
X165410000Y-87495000D03*
D30*
X161800000Y-113015000D03*
X161800000Y-111465000D03*
D13*
X156255000Y-122610000D03*
X157805000Y-122610000D03*
D34*
X160390000Y-156040000D03*
X162490000Y-156040000D03*
D13*
X161695000Y-108180000D03*
X163245000Y-108180000D03*
D24*
X109670000Y-108485000D03*
X109670000Y-110135000D03*
D23*
X176140000Y-161275000D03*
X176140000Y-159625000D03*
D24*
X112400000Y-108485000D03*
X112400000Y-110135000D03*
D35*
X116085000Y-85670000D03*
X117185000Y-85670000D03*
X118285000Y-85670000D03*
X119385000Y-85670000D03*
X120485000Y-85670000D03*
X121585000Y-85670000D03*
X122685000Y-85670000D03*
X123785000Y-85670000D03*
X124735000Y-85670000D03*
D36*
X125685000Y-75170000D03*
D37*
X125685000Y-81370000D03*
D38*
X125685000Y-71020000D03*
D37*
X114535000Y-85670000D03*
D39*
X112185000Y-70570000D03*
D40*
X166947500Y-122550000D03*
X165372500Y-122550000D03*
D24*
X115150000Y-108485000D03*
X115150000Y-110135000D03*
D11*
X168350000Y-108385000D03*
X168350000Y-109935000D03*
D24*
X119270000Y-108505000D03*
X119270000Y-110155000D03*
D14*
X168350000Y-106850000D03*
X168350000Y-104950000D03*
D41*
X129890000Y-92906250D03*
X129890000Y-94481250D03*
D23*
X166890000Y-115835000D03*
X166890000Y-114185000D03*
D42*
X161710000Y-109900000D03*
X163610000Y-109900000D03*
X161450000Y-138200000D03*
X163350000Y-138200000D03*
D32*
X163582500Y-104780000D03*
X163582500Y-106680000D03*
X165457500Y-105730000D03*
D43*
X110747500Y-96625000D03*
X110747500Y-97275000D03*
X110747500Y-97925000D03*
X110747500Y-98575000D03*
X110747500Y-99225000D03*
X110747500Y-99875000D03*
X110747500Y-100525000D03*
X110747500Y-101175000D03*
X110747500Y-101825000D03*
X110747500Y-102475000D03*
X110747500Y-103125000D03*
X110747500Y-103775000D03*
X116472500Y-103775000D03*
X116472500Y-103125000D03*
X116472500Y-102475000D03*
X116472500Y-101825000D03*
X116472500Y-101175000D03*
X116472500Y-100525000D03*
X116472500Y-99875000D03*
X116472500Y-99225000D03*
X116472500Y-98575000D03*
X116472500Y-97925000D03*
X116472500Y-97275000D03*
X116472500Y-96625000D03*
D24*
X108310000Y-108485000D03*
X108310000Y-110135000D03*
D44*
X155047500Y-155590000D03*
X155047500Y-154640000D03*
X155047500Y-153690000D03*
X152772500Y-153690000D03*
X152772500Y-155590000D03*
D45*
X165630000Y-153430000D03*
X165630000Y-154830000D03*
D11*
X151200000Y-155585000D03*
X151200000Y-157135000D03*
D44*
X136280000Y-140890000D03*
X136280000Y-139940000D03*
X136280000Y-138990000D03*
X134005000Y-138990000D03*
X134005000Y-140890000D03*
D46*
X161060000Y-149600000D03*
X162360000Y-149600000D03*
X161060000Y-148300000D03*
X162360000Y-148300000D03*
D47*
X160460000Y-150887500D03*
X160960000Y-150887500D03*
X161460000Y-150887500D03*
X161960000Y-150887500D03*
X162460000Y-150887500D03*
X162960000Y-150887500D03*
D48*
X163647500Y-150200000D03*
X163647500Y-149700000D03*
X163647500Y-149200000D03*
X163647500Y-148700000D03*
X163647500Y-148200000D03*
X163647500Y-147700000D03*
D47*
X162960000Y-147012500D03*
X162460000Y-147012500D03*
X161960000Y-147012500D03*
X161460000Y-147012500D03*
X160960000Y-147012500D03*
X160460000Y-147012500D03*
D48*
X159772500Y-147700000D03*
X159772500Y-148200000D03*
X159772500Y-148700000D03*
X159772500Y-149200000D03*
X159772500Y-149700000D03*
X159772500Y-150200000D03*
D49*
X155640000Y-142100000D03*
X163840000Y-142100000D03*
D23*
X165250000Y-131855000D03*
X165250000Y-130205000D03*
D11*
X168330000Y-93995000D03*
X168330000Y-95545000D03*
D14*
X151355000Y-76810000D03*
X151355000Y-74910000D03*
D11*
X168300000Y-122545000D03*
X168300000Y-124095000D03*
D23*
X164950000Y-147145000D03*
X164950000Y-145495000D03*
D13*
X161535000Y-122280000D03*
X163085000Y-122280000D03*
D24*
X129900000Y-95748750D03*
X129900000Y-97398750D03*
D13*
X156185000Y-136830000D03*
X157735000Y-136830000D03*
D11*
X138188750Y-135255000D03*
X138188750Y-136805000D03*
D22*
X148055000Y-76810000D03*
X149705000Y-76810000D03*
D13*
X156105000Y-108320000D03*
X157655000Y-108320000D03*
D22*
X140545000Y-127790000D03*
X142195000Y-127790000D03*
D23*
X174740000Y-161305000D03*
X174740000Y-159655000D03*
D40*
X166957500Y-93970000D03*
X165382500Y-93970000D03*
X166837500Y-136720000D03*
X165262500Y-136720000D03*
D14*
X111640000Y-121180000D03*
X111640000Y-119280000D03*
D22*
X163245000Y-111470000D03*
X164895000Y-111470000D03*
D50*
X160032000Y-106685000D03*
X160032000Y-105415000D03*
X160032000Y-104145000D03*
X160032000Y-102875000D03*
X160032000Y-101605000D03*
X160032000Y-100335000D03*
X160032000Y-99065000D03*
X160032000Y-97795000D03*
X154608000Y-97795000D03*
X154608000Y-99065000D03*
X154608000Y-100335000D03*
X154608000Y-101605000D03*
X154608000Y-102875000D03*
X154608000Y-104145000D03*
X154608000Y-105415000D03*
X154608000Y-106685000D03*
D51*
X140705000Y-156560000D03*
X140705000Y-157510000D03*
X140705000Y-158460000D03*
X143005000Y-156560000D03*
X143005000Y-157510000D03*
X143005000Y-158460000D03*
D23*
X121090000Y-91115000D03*
X121090000Y-89465000D03*
D50*
X159992000Y-120995000D03*
X159992000Y-119725000D03*
X159992000Y-118455000D03*
X159992000Y-117185000D03*
X159992000Y-115915000D03*
X159992000Y-114645000D03*
X159992000Y-113375000D03*
X159992000Y-112105000D03*
X154568000Y-112105000D03*
X154568000Y-113375000D03*
X154568000Y-114645000D03*
X154568000Y-115915000D03*
X154568000Y-117185000D03*
X154568000Y-118455000D03*
X154568000Y-119725000D03*
X154568000Y-120995000D03*
D22*
X141405000Y-131040000D03*
X143055000Y-131040000D03*
X139755000Y-129620000D03*
X141405000Y-129620000D03*
D11*
X119730000Y-91115000D03*
X119730000Y-92665000D03*
D23*
X165470000Y-103455000D03*
X165470000Y-101805000D03*
D22*
X163175000Y-127310000D03*
X164825000Y-127310000D03*
D24*
X117910000Y-108485000D03*
X117910000Y-110135000D03*
D42*
X161680000Y-95660000D03*
X163580000Y-95660000D03*
X161550000Y-123990000D03*
X163450000Y-123990000D03*
D13*
X156175000Y-93930000D03*
X157725000Y-93930000D03*
D30*
X162250000Y-98805000D03*
X162250000Y-97255000D03*
D50*
X159972000Y-135195000D03*
X159972000Y-133925000D03*
X159972000Y-132655000D03*
X159972000Y-131385000D03*
X159972000Y-130115000D03*
X159972000Y-128845000D03*
X159972000Y-127575000D03*
X159972000Y-126305000D03*
X154548000Y-126305000D03*
X154548000Y-127575000D03*
X154548000Y-128845000D03*
X154548000Y-130115000D03*
X154548000Y-131385000D03*
X154548000Y-132655000D03*
X154548000Y-133925000D03*
X154548000Y-135195000D03*
D22*
X163245000Y-113020000D03*
X164895000Y-113020000D03*
D52*
X143100000Y-161560000D03*
X143100000Y-160610000D03*
X143100000Y-159660000D03*
X140600000Y-159660000D03*
X140600000Y-160610000D03*
X140600000Y-161560000D03*
D11*
X132442500Y-140895000D03*
X132442500Y-142445000D03*
D13*
X161415000Y-136440000D03*
X162965000Y-136440000D03*
D12*
X158250000Y-155590000D03*
X158250000Y-157490000D03*
D13*
X161665000Y-93800000D03*
X163215000Y-93800000D03*
D53*
X171507500Y-156320000D03*
X171507500Y-155520000D03*
X171507500Y-154170000D03*
X171507500Y-153170000D03*
X171507500Y-152670000D03*
X171507500Y-151670000D03*
X171507500Y-150320000D03*
X171507500Y-149520000D03*
X171507500Y-149820000D03*
X171507500Y-150620000D03*
X171507500Y-151170000D03*
X171507500Y-152170000D03*
X171507500Y-153670000D03*
X171507500Y-154670000D03*
X171507500Y-155220000D03*
X171507500Y-156020000D03*
D14*
X166560000Y-151850000D03*
X166560000Y-149950000D03*
D32*
X164412500Y-155610000D03*
X164412500Y-157510000D03*
X166287500Y-156560000D03*
D23*
X166970000Y-101825000D03*
X166970000Y-100175000D03*
X118300000Y-91095000D03*
X118300000Y-89445000D03*
D12*
X128250000Y-89300000D03*
X128250000Y-91200000D03*
D30*
X164940000Y-151825000D03*
X164940000Y-150275000D03*
X144805000Y-76785000D03*
X144805000Y-75235000D03*
D24*
X111020000Y-108485000D03*
X111020000Y-110135000D03*
D54*
X162305000Y-154310000D03*
X160655000Y-154310000D03*
D32*
X163502500Y-119100000D03*
X163502500Y-121000000D03*
X165377500Y-120050000D03*
D45*
X168560000Y-154770000D03*
X168560000Y-156170000D03*
D30*
X162140000Y-87495000D03*
X162140000Y-85945000D03*
D55*
X149842000Y-138576000D03*
X149842000Y-130376000D03*
D24*
X116530000Y-108485000D03*
X116530000Y-110135000D03*
D22*
X163695000Y-98800000D03*
X165345000Y-98800000D03*
D24*
X130100000Y-108495000D03*
X130100000Y-110145000D03*
D56*
X132110000Y-83095000D03*
X132110000Y-84335000D03*
X132110000Y-89295000D03*
X132110000Y-90565000D03*
X132110000Y-94495000D03*
X132110000Y-95765000D03*
X132110000Y-97035000D03*
X132110000Y-98305000D03*
X132110000Y-99575000D03*
X132110000Y-100845000D03*
X132110000Y-102115000D03*
X132110000Y-103385000D03*
X132110000Y-104655000D03*
X132110000Y-105925000D03*
X132110000Y-107195000D03*
X132110000Y-108465000D03*
X132110000Y-109735000D03*
X132110000Y-111005000D03*
D57*
X135720000Y-116495000D03*
X136990000Y-116495000D03*
X138260000Y-116495000D03*
X139530000Y-116495000D03*
X140800000Y-116495000D03*
X142070000Y-116495000D03*
X143340000Y-116495000D03*
X144610000Y-116495000D03*
D56*
X148210000Y-111005000D03*
X148210000Y-109735000D03*
X148210000Y-108465000D03*
X148210000Y-107195000D03*
X148210000Y-105925000D03*
X148210000Y-104655000D03*
X148210000Y-103385000D03*
X148210000Y-102115000D03*
X148210000Y-100845000D03*
X148210000Y-99575000D03*
X148210000Y-98305000D03*
X148210000Y-97035000D03*
X148210000Y-95765000D03*
X148210000Y-94495000D03*
X148210000Y-90565000D03*
X148210000Y-89295000D03*
X148210000Y-84365000D03*
X148210000Y-83095000D03*
D30*
X162250000Y-101875000D03*
X162250000Y-100325000D03*
D11*
X168200000Y-136725000D03*
X168200000Y-138275000D03*
D54*
X145305000Y-162870000D03*
X143655000Y-162870000D03*
D24*
X113780000Y-108485000D03*
X113780000Y-110135000D03*
D11*
X152650000Y-145885000D03*
X152650000Y-147435000D03*
D30*
X115180000Y-95335000D03*
X115180000Y-93785000D03*
D40*
X167007500Y-108360000D03*
X165432500Y-108360000D03*
D50*
X159990000Y-92300000D03*
X159990000Y-91030000D03*
X159990000Y-89760000D03*
X159990000Y-88490000D03*
X159990000Y-87220000D03*
X159990000Y-85950000D03*
X159990000Y-84680000D03*
X159990000Y-83410000D03*
X154566000Y-83410000D03*
X154566000Y-84680000D03*
X154566000Y-85950000D03*
X154566000Y-87220000D03*
X154566000Y-88490000D03*
X154566000Y-89760000D03*
X154566000Y-91030000D03*
X154566000Y-92300000D03*
D30*
X162320000Y-84445000D03*
X162320000Y-82895000D03*
D12*
X130802500Y-140890000D03*
X130802500Y-142790000D03*
D24*
X107950000Y-88505000D03*
X107950000Y-90155000D03*
D22*
X163185000Y-125780000D03*
X164835000Y-125780000D03*
D30*
X161790000Y-127305000D03*
X161790000Y-125755000D03*
D22*
X151049000Y-151494000D03*
X152699000Y-151494000D03*
D14*
X146480000Y-76810000D03*
X146480000Y-74910000D03*
D58*
X142750000Y-76805000D03*
X142750000Y-75555000D03*
X142750000Y-74305000D03*
X142750000Y-73055000D03*
X140600000Y-73055000D03*
X140600000Y-74305000D03*
X140600000Y-75555000D03*
X140600000Y-76805000D03*
D54*
X167875000Y-147150000D03*
X166225000Y-147150000D03*
D12*
X139858750Y-135250000D03*
X139858750Y-137150000D03*
D42*
X144670000Y-118880000D03*
X146570000Y-118880000D03*
D12*
X139420000Y-140870000D03*
X139420000Y-142770000D03*
D14*
X168300000Y-120930000D03*
X168300000Y-119030000D03*
D44*
X136486250Y-135250000D03*
X136486250Y-134300000D03*
X136486250Y-133350000D03*
X134211250Y-133350000D03*
X134211250Y-135250000D03*
D24*
X120630000Y-108525000D03*
X120630000Y-110175000D03*
D22*
X144965000Y-160610000D03*
X146615000Y-160610000D03*
D30*
X161800000Y-116185000D03*
X161800000Y-114635000D03*
X129940000Y-89305000D03*
X129940000Y-87755000D03*
D11*
X132478750Y-135255000D03*
X132478750Y-136805000D03*
D23*
X116910000Y-91115000D03*
X116910000Y-89465000D03*
X173330000Y-161305000D03*
X173330000Y-159655000D03*
D22*
X163625000Y-82890000D03*
X165275000Y-82890000D03*
D23*
X165370000Y-117485000D03*
X165370000Y-115835000D03*
D32*
X163502500Y-90390000D03*
X163502500Y-92290000D03*
X165377500Y-91340000D03*
D22*
X163615000Y-84410000D03*
X165265000Y-84410000D03*
X163695000Y-97280000D03*
X165345000Y-97280000D03*
D11*
X137830000Y-140895000D03*
X137830000Y-142445000D03*
D45*
X168840000Y-152670000D03*
X168840000Y-151270000D03*
D30*
X161800000Y-130355000D03*
X161800000Y-128805000D03*
M02*
